  0
SECTION
  2
HEADER
  9
$ACADVER
  1
AC1014
  9
$HANDSEED
  5
FFFF
  9
$MEASUREMENT
 70
     1
  0
ENDSEC
  0
SECTION
  2
TABLES
  0
TABLE
  2
VPORT
  5
8
330
0
100
AcDbSymbolTable
 70
     4
  0
VPORT
  5
2E
330
8
100
AcDbSymbolTableRecord
100
AcDbViewportTableRecord
  2
*ACTIVE
 70
     0
 10
0.0
 20
0.0
 11
1.0
 21
1.0
 12
210.0
 22
148.5
 13
0.0
 23
0.0
 14
10.0
 24
10.0
 15
10.0
 25
10.0
 16
0.0
 26
0.0
 36
1.0
 17
0.0
 27
0.0
 37
0.0
 40
341.0
 41
1.24
 42
50.0
 43
0.0
 44
0.0
 50
0.0
 51
0.0
 71
     0
 72
   100
 73
     1
 74
     3
 75
     0
 76
     0
 77
     0
 78
     0
  0
ENDTAB
  0
TABLE
  2
LTYPE
  5
5
330
0
100
AcDbSymbolTable
 70
     1
  0
LTYPE
  5
14
330
5
100
AcDbSymbolTableRecord
100
AcDbLinetypeTableRecord
  2
BYBLOCK
 70
     0
  3

 72
    65
 73
     0
 40
0.0
  0
LTYPE
  5
15
330
5
100
AcDbSymbolTableRecord
100
AcDbLinetypeTableRecord
  2
BYLAYER
 70
     0
  3

 72
    65
 73
     0
 40
0.0
  0
LTYPE
  5
16
330
5
100
AcDbSymbolTableRecord
100
AcDbLinetypeTableRecord
  2
CONTINUOUS
 70
     0
  3
Solid line
 72
    65
 73
     0
 40
0.0
  0
ENDTAB
  0
TABLE
  2
LAYER
  5
2
100
AcDbSymbolTable
 70
3
  0
LAYER
  5
50
100
AcDbSymbolTableRecord
100
AcDbLayerTableRecord
  2
0
 70
0
  6
CONTINUOUS
  0
LAYER
  5
51
100
AcDbSymbolTableRecord
100
AcDbLayerTableRecord
  2
text
 70
0
  6
CONTINUOUS
  0
LAYER
  5
52
100
AcDbSymbolTableRecord
100
AcDbLayerTableRecord
  2
overlay
 70
0
  6
CONTINUOUS
  0
ENDTAB
  0
TABLE
  2
STYLE
  5
3
330
0
100
AcDbSymbolTable
 70
     1
  0
STYLE
  5
11
330
3
100
AcDbSymbolTableRecord
100
AcDbTextStyleTableRecord
  2
STANDARD
 70
     0
 40
0.0
 41
1.0
 50
0.0
 71
     0
 42
2.5
  3
txt
  4

  0
ENDTAB
  0
TABLE
  2
VIEW
  5
6
330
0
100
AcDbSymbolTable
 70
     0
  0
ENDTAB
  0
TABLE
  2
UCS
  5
7
330
0
100
AcDbSymbolTable
 70
     0
  0
ENDTAB
  0
TABLE
  2
APPID
  5
9
330
0
100
AcDbSymbolTable
 70
     2
  0
APPID
  5
12
330
9
100
AcDbSymbolTableRecord
100
AcDbRegAppTableRecord
  2
ACAD
 70
     0
  0
ENDTAB
  0
TABLE
  2
DIMSTYLE
  5
A
330
0
100
AcDbSymbolTable
 70
     1
  0
DIMSTYLE
105
27
330
A
100
AcDbSymbolTableRecord
100
AcDbDimStyleTableRecord
  2
ISO-25
 70
     0
  3

  4

  5

  6

  7

 40
1.0
 41
2.5
 42
0.625
 43
3.75
 44
1.25
 45
0.0
 46
0.0
 47
0.0
 48
0.0
140
2.5
141
2.5
142
0.0
143
0.03937007874016
144
1.0
145
0.0
146
1.0
147
0.625
 71
     0
 72
     0
 73
     0
 74
     0
 75
     0
 76
     0
 77
     1
 78
     8
170
     0
171
     3
172
     1
173
     0
174
     0
175
     0
176
     0
177
     0
178
     0
270
     2
271
     2
272
     2
273
     2
274
     3
340
11
275
     0
280
     0
281
     0
282
     0
283
     0
284
     8
285
     0
286
     0
287
     3
288
     0
  0
ENDTAB
  0
TABLE
  2
BLOCK_RECORD
  5
1
330
0
100
AcDbSymbolTable
 70
     1
  0
BLOCK_RECORD
  5
1F
330
1
100
AcDbSymbolTableRecord
100
AcDbBlockTableRecord
  2
*MODEL_SPACE
  0
BLOCK_RECORD
  5
1B
330
1
100
AcDbSymbolTableRecord
100
AcDbBlockTableRecord
  2
*PAPER_SPACE
  0
ENDTAB
  0
ENDSEC
  0
SECTION
  2
BLOCKS
  0
BLOCK
  5
20
330
1F
100
AcDbEntity
  8
0
100
AcDbBlockBegin
  2
*MODEL_SPACE
 70
     0
 10
0.0
 20
0.0
 30
0.0
  3
*MODEL_SPACE
  1

  0
ENDBLK
  5
21
330
1F
100
AcDbEntity
  8
0
100
AcDbBlockEnd
  0
BLOCK
  5
1C
330
1B
100
AcDbEntity
 67
     1
  8
0
100
AcDbBlockBegin
  2
*PAPER_SPACE
  1

  0
ENDBLK
  5
1D
330
1B
100
AcDbEntity
 67
     1
  8
0
100
AcDbBlockEnd
  0
ENDSEC
  0
SECTION
  2
ENTITIES
  0
LWPOLYLINE
  5
100
100
AcDbEntity
  8
text
 62
5
100
AcDbPolyline
 90
5
 70
1
 10
5.567550
 20
274.434538
 30
0.0
 10
208.776508
 20
274.434538
 30
0.0
 10
208.776508
 20
7.241821
 30
0.0
 10
5.567550
 20
7.241821
 30
0.0
 10
5.567550
 20
274.434538
 30
0.0
  0
LWPOLYLINE
  5
101
100
AcDbEntity
  8
text
 62
7
100
AcDbPolyline
 90
6
 70
0
 10
29.305171
 20
142.665590
 30
0.0
 10
11.039586
 20
142.665590
 30
0.0
 10
11.039586
 20
271.135714
 30
0.0
 10
61.615607
 20
271.135714
 30
0.0
 10
61.615607
 20
142.665590
 30
0.0
 10
11.039586
 20
142.665590
 30
0.0
  0
SPLINE
  5
102
100
AcDbEntity
  8
text
 62
1
100
AcDbSpline
 70
0
 71
3
 72
31
 73
27
 74
25
 40
0.000000
 40
0.000000
 40
0.000000
 40
0.000000
 40
0.062937
 40
0.126191
 40
0.191411
 40
0.258260
 40
0.325918
 40
0.394921
 40
0.463924
 40
0.531582
 40
0.598431
 40
0.663651
 40
0.726905
 40
0.789842
 40
0.852778
 40
0.916033
 40
0.981253
 40
1.048102
 40
1.115760
 40
1.184763
 40
1.253766
 40
1.321424
 40
1.388273
 40
1.453493
 40
1.516747
 40
1.579684
 40
1.579684
 40
1.579684
 40
1.579684
 10
55.605996
 20
267.973848
 30
0.0
 10
55.604217
 20
267.952798
 30
0.0
 10
55.600650
 20
267.910593
 30
0.0
 10
55.572633
 20
267.851851
 30
0.0
 10
55.530272
 20
267.801627
 30
0.0
 10
55.474863
 20
267.763313
 30
0.0
 10
55.410731
 20
267.739304
 30
0.0
 10
55.342004
 20
267.731107
 30
0.0
 10
55.273285
 20
267.739304
 30
0.0
 10
55.209130
 20
267.763313
 30
0.0
 10
55.153803
 20
267.801627
 30
0.0
 10
55.111148
 20
267.851851
 30
0.0
 10
55.084190
 20
267.910593
 30
0.0
 10
55.074935
 20
267.973848
 30
0.0
 10
55.084190
 20
268.037103
 30
0.0
 10
55.111148
 20
268.095845
 30
0.0
 10
55.153803
 20
268.146069
 30
0.0
 10
55.209130
 20
268.184383
 30
0.0
 10
55.273285
 20
268.208392
 30
0.0
 10
55.342004
 20
268.216589
 30
0.0
 10
55.410731
 20
268.208392
 30
0.0
 10
55.474863
 20
268.184383
 30
0.0
 10
55.530272
 20
268.146069
 30
0.0
 10
55.572633
 20
268.095845
 30
0.0
 10
55.600650
 20
268.037103
 30
0.0
 10
55.604217
 20
267.994897
 30
0.0
 10
55.605996
 20
267.973848
 30
0.0
 11
55.605996
 21
267.973848
 31
0.0
 11
55.596952
 21
267.911565
 31
0.0
 11
55.570725
 21
267.854004
 31
0.0
 11
55.528675
 21
267.804149
 31
0.0
 11
55.473834
 21
267.765922
 31
0.0
 11
55.410517
 21
267.742080
 31
0.0
 11
55.342005
 21
267.733857
 31
0.0
 11
55.273494
 21
267.742080
 31
0.0
 11
55.210176
 21
267.765922
 31
0.0
 11
55.155336
 21
267.804149
 31
0.0
 11
55.113286
 21
267.854004
 31
0.0
 11
55.087059
 21
267.911565
 31
0.0
 11
55.078015
 21
267.973848
 31
0.0
 11
55.087059
 21
268.036131
 31
0.0
 11
55.113286
 21
268.093692
 31
0.0
 11
55.155336
 21
268.143547
 31
0.0
 11
55.210176
 21
268.181774
 31
0.0
 11
55.273494
 21
268.205616
 31
0.0
 11
55.342005
 21
268.213838
 31
0.0
 11
55.410517
 21
268.205616
 31
0.0
 11
55.473834
 21
268.181774
 31
0.0
 11
55.528675
 21
268.143547
 31
0.0
 11
55.570725
 21
268.093692
 31
0.0
 11
55.596952
 21
268.036131
 31
0.0
 11
55.605996
 21
267.973848
 31
0.0
  0
LWPOLYLINE
  5
103
100
AcDbEntity
  8
text
 62
1
100
AcDbPolyline
 90
2
 70
1
 10
55.605996
 20
267.973848
 30
0.0
 10
55.605996
 20
267.973848
 30
0.0
  0
LWPOLYLINE
  5
104
100
AcDbEntity
  8
text
 62
1
100
AcDbPolyline
 90
2
 70
1
 10
19.649877
 20
145.762510
 30
0.0
 10
19.649877
 20
145.762510
 30
0.0
  0
LWPOLYLINE
  5
105
100
AcDbEntity
  8
text
 62
7
100
AcDbPolyline
 90
6
 70
1
 10
33.015229
 20
268.585703
 30
0.0
 10
29.641641
 20
268.585703
 30
0.0
 10
29.641641
 20
256.179832
 30
0.0
 10
33.015229
 20
256.179832
 30
0.0
 10
33.015229
 20
268.585703
 30
0.0
 10
33.015229
 20
268.585703
 30
0.0
  0
LWPOLYLINE
  5
106
100
AcDbEntity
  8
text
 62
7
100
AcDbPolyline
 90
6
 70
1
 10
50.244123
 20
268.585703
 30
0.0
 10
46.869131
 20
268.585703
 30
0.0
 10
46.869131
 20
256.179832
 30
0.0
 10
50.244123
 20
256.179832
 30
0.0
 10
50.244123
 20
268.585703
 30
0.0
 10
50.244123
 20
268.585703
 30
0.0
  0
SPLINE
  5
107
100
AcDbEntity
  8
text
 62
1
100
AcDbSpline
 70
0
 71
3
 72
19
 73
15
 74
13
 40
0.000000
 40
0.000000
 40
0.000000
 40
0.000000
 40
0.089771
 40
0.187937
 40
0.299338
 40
0.410740
 40
0.508905
 40
0.598676
 40
0.688447
 40
0.786613
 40
0.898014
 40
1.009416
 40
1.107581
 40
1.197353
 40
1.197353
 40
1.197353
 40
1.197353
 10
19.649877
 20
145.762510
 30
0.0
 10
19.643223
 20
145.732339
 30
0.0
 10
19.629292
 20
145.669175
 30
0.0
 10
19.540597
 20
145.608530
 30
0.0
 10
19.434191
 20
145.587068
 30
0.0
 10
19.326021
 20
145.608530
 30
0.0
 10
19.241869
 20
145.669175
 30
0.0
 10
19.206441
 20
145.762510
 30
0.0
 10
19.241869
 20
145.855845
 30
0.0
 10
19.326021
 20
145.916490
 30
0.0
 10
19.434191
 20
145.937952
 30
0.0
 10
19.540597
 20
145.916490
 30
0.0
 10
19.629292
 20
145.855845
 30
0.0
 10
19.643223
 20
145.792681
 30
0.0
 10
19.649877
 20
145.762510
 30
0.0
 11
19.649877
 21
145.762510
 31
0.0
 11
19.620387
 21
145.677721
 31
0.0
 11
19.542900
 21
145.617453
 31
0.0
 11
19.433885
 21
145.594517
 31
0.0
 11
19.324870
 21
145.617453
 31
0.0
 11
19.247383
 21
145.677721
 31
0.0
 11
19.217893
 21
145.762510
 31
0.0
 11
19.247383
 21
145.847299
 31
0.0
 11
19.324870
 21
145.907567
 31
0.0
 11
19.433885
 21
145.930503
 31
0.0
 11
19.542900
 21
145.907567
 31
0.0
 11
19.620387
 21
145.847299
 31
0.0
 11
19.649877
 21
145.762510
 31
0.0
  0
LWPOLYLINE
  5
108
100
AcDbEntity
  8
text
 62
7
100
AcDbPolyline
 90
6
 70
1
 10
37.713252
 20
259.157354
 30
0.0
 10
42.169703
 20
259.157354
 30
0.0
 10
42.169703
 20
265.605373
 30
0.0
 10
34.339665
 20
265.605373
 30
0.0
 10
34.339665
 20
268.585703
 30
0.0
 10
44.366327
 20
268.588512
 30
0.0
  0
SPLINE
  5
109
100
AcDbEntity
  8
text
 62
7
100
AcDbSpline
 70
0
 71
3
 72
10
 73
6
 74
4
 40
0.000000
 40
0.000000
 40
0.000000
 40
0.000000
 40
0.616403
 40
1.215883
 40
1.834167
 40
1.834167
 40
1.834167
 40
1.834167
 10
44.366327
 20
268.588512
 30
0.0
 10
44.572878
 20
268.555891
 30
0.0
 10
44.980308
 20
268.491544
 30
0.0
 10
45.449522
 20
268.021173
 30
0.0
 10
45.513578
 20
267.613112
 30
0.0
 10
45.546100
 20
267.405931
 30
0.0
 11
44.366327
 21
268.588512
 31
0.0
 11
44.961207
 21
268.427048
 31
0.0
 11
45.384740
 21
268.002787
 31
0.0
 11
45.546100
 21
267.405931
 31
0.0
  0
LWPOLYLINE
  5
10a
100
AcDbEntity
  8
text
 62
7
100
AcDbPolyline
 90
2
 70
1
 10
45.546100
 20
267.405931
 30
0.0
 10
45.543291
 20
257.358200
 30
0.0
  0
LWPOLYLINE
  5
10b
100
AcDbEntity
  8
text
 62
7
100
AcDbPolyline
 90
6
 70
1
 10
44.360709
 20
256.178428
 30
0.0
 10
34.339665
 20
256.178428
 30
0.0
 10
34.339665
 20
263.901725
 30
0.0
 10
37.713252
 20
263.901725
 30
0.0
 10
37.713252
 20
259.157354
 30
0.0
 10
37.713252
 20
259.157354
 30
0.0
  0
SPLINE
  5
10c
100
AcDbEntity
  8
text
 62
7
100
AcDbSpline
 70
0
 71
3
 72
10
 73
6
 74
4
 40
0.000000
 40
0.000000
 40
0.000000
 40
0.000000
 40
0.617445
 40
1.216043
 40
1.835370
 40
1.835370
 40
1.835370
 40
1.835370
 10
45.543291
 20
257.358200
 30
0.0
 10
45.511024
 20
257.151197
 30
0.0
 10
45.447474
 20
256.743508
 30
0.0
 10
44.976661
 20
256.273857
 30
0.0
 10
44.568343
 20
256.210597
 30
0.0
 10
44.360709
 20
256.178428
 30
0.0
 11
45.543291
 21
257.358200
 31
0.0
 11
45.382451
 21
256.762072
 31
0.0
 11
44.958815
 21
256.339164
 31
0.0
 11
44.360709
 21
256.178428
 31
0.0
  0
LWPOLYLINE
  5
10d
100
AcDbEntity
  8
text
 62
7
100
AcDbPolyline
 90
14
 70
0
 10
27.136029
 20
268.588512
 30
0.0
 10
24.940809
 20
268.585703
 30
0.0
 10
14.791956
 20
268.585703
 30
0.0
 10
14.791956
 20
256.178428
 30
0.0
 10
18.164139
 20
256.178428
 30
0.0
 10
18.164139
 20
265.605373
 30
0.0
 10
19.866382
 20
265.605373
 30
0.0
 10
19.866382
 20
256.178428
 30
0.0
 10
23.241375
 20
256.178428
 30
0.0
 10
23.241375
 20
265.605373
 30
0.0
 10
24.940809
 20
265.605373
 30
0.0
 10
24.940809
 20
256.178428
 30
0.0
 10
28.317206
 20
256.178428
 30
0.0
 10
28.320015
 20
267.405931
 30
0.0
  0
LWPOLYLINE
  5
10e
100
AcDbEntity
  8
text
 62
1
100
AcDbPolyline
 90
2
 70
0
 10
30.023963
 20
213.569427
 30
0.0
 10
25.569328
 20
205.551070
 30
0.0
  0
LWPOLYLINE
  5
10f
100
AcDbEntity
  8
text
 62
1
100
AcDbPolyline
 90
2
 70
0
 10
30.023963
 20
213.569427
 30
0.0
 10
21.827434
 20
209.471165
 30
0.0
  0
LWPOLYLINE
  5
110
100
AcDbEntity
  8
text
 62
1
100
AcDbPolyline
 90
2
 70
0
 10
30.023963
 20
213.569427
 30
0.0
 10
20.936509
 20
214.638541
 30
0.0
  0
LWPOLYLINE
  5
111
100
AcDbEntity
  8
text
 62
1
100
AcDbPolyline
 90
2
 70
0
 10
30.023963
 20
213.569427
 30
0.0
 10
23.074732
 20
219.449555
 30
0.0
  0
LWPOLYLINE
  5
112
100
AcDbEntity
  8
text
 62
1
100
AcDbPolyline
 90
2
 70
0
 10
30.023963
 20
213.569427
 30
0.0
 10
27.529367
 20
222.300508
 30
0.0
  0
LWPOLYLINE
  5
113
100
AcDbEntity
  8
text
 62
1
100
AcDbPolyline
 90
2
 70
0
 10
30.023963
 20
213.569427
 30
0.0
 10
32.518556
 20
222.300508
 30
0.0
  0
LWPOLYLINE
  5
114
100
AcDbEntity
  8
text
 62
1
100
AcDbPolyline
 90
2
 70
0
 10
30.023963
 20
213.569427
 30
0.0
 10
36.973191
 20
219.449555
 30
0.0
  0
LWPOLYLINE
  5
115
100
AcDbEntity
  8
text
 62
1
100
AcDbPolyline
 90
2
 70
0
 10
30.023963
 20
213.569427
 30
0.0
 10
39.111417
 20
214.638541
 30
0.0
  0
LWPOLYLINE
  5
116
100
AcDbEntity
  8
text
 62
1
100
AcDbPolyline
 90
2
 70
0
 10
30.023963
 20
213.569427
 30
0.0
 10
38.220489
 20
209.471165
 30
0.0
  0
LWPOLYLINE
  5
117
100
AcDbEntity
  8
text
 62
1
100
AcDbPolyline
 90
2
 70
0
 10
30.023963
 20
213.569427
 30
0.0
 10
34.656782
 20
205.551070
 30
0.0
  0
LWPOLYLINE
  5
118
100
AcDbEntity
  8
text
 62
1
100
AcDbPolyline
 90
2
 70
0
 10
30.023963
 20
213.569427
 30
0.0
 10
26.103885
 20
206.620185
 30
0.0
  0
LWPOLYLINE
  5
119
100
AcDbEntity
  8
text
 62
1
100
AcDbPolyline
 90
2
 70
0
 10
30.023963
 20
213.569427
 30
0.0
 10
25.034771
 20
207.154742
 30
0.0
  0
LWPOLYLINE
  5
11a
100
AcDbEntity
  8
text
 62
1
100
AcDbPolyline
 90
2
 70
0
 10
30.023963
 20
213.569427
 30
0.0
 10
24.143843
 20
208.045689
 30
0.0
  0
LWPOLYLINE
  5
11b
100
AcDbEntity
  8
text
 62
1
100
AcDbPolyline
 90
2
 70
0
 10
30.023963
 20
213.569427
 30
0.0
 10
23.431102
 20
208.936608
 30
0.0
  0
LWPOLYLINE
  5
11c
100
AcDbEntity
  8
text
 62
1
100
AcDbPolyline
 90
2
 70
0
 10
30.023963
 20
213.569427
 30
0.0
 10
22.718361
 20
210.005722
 30
0.0
  0
LWPOLYLINE
  5
11d
100
AcDbEntity
  8
text
 62
1
100
AcDbPolyline
 90
2
 70
0
 10
30.023963
 20
213.569427
 30
0.0
 10
22.361991
 20
211.074837
 30
0.0
  0
LWPOLYLINE
  5
11e
100
AcDbEntity
  8
text
 62
1
100
AcDbPolyline
 90
2
 70
0
 10
30.023963
 20
213.569427
 30
0.0
 10
22.005620
 20
212.322118
 30
0.0
  0
LWPOLYLINE
  5
11f
100
AcDbEntity
  8
text
 62
1
100
AcDbPolyline
 90
2
 70
0
 10
30.023963
 20
213.569427
 30
0.0
 10
22.005620
 20
213.391232
 30
0.0
  0
LWPOLYLINE
  5
120
100
AcDbEntity
  8
text
 62
1
100
AcDbPolyline
 90
2
 70
0
 10
30.023963
 20
213.569427
 30
0.0
 10
22.005620
 20
214.460346
 30
0.0
  0
LWPOLYLINE
  5
121
100
AcDbEntity
  8
text
 62
1
100
AcDbPolyline
 90
2
 70
0
 10
30.023963
 20
213.569427
 30
0.0
 10
22.183804
 20
215.529460
 30
0.0
  0
LWPOLYLINE
  5
122
100
AcDbEntity
  8
text
 62
1
100
AcDbPolyline
 90
2
 70
0
 10
30.023963
 20
213.569427
 30
0.0
 10
22.540177
 20
216.776770
 30
0.0
  0
LWPOLYLINE
  5
123
100
AcDbEntity
  8
text
 62
1
100
AcDbPolyline
 90
2
 70
0
 10
30.023963
 20
213.569427
 30
0.0
 10
23.074732
 20
217.845884
 30
0.0
  0
LWPOLYLINE
  5
124
100
AcDbEntity
  8
text
 62
1
100
AcDbPolyline
 90
2
 70
0
 10
30.023963
 20
213.569427
 30
0.0
 10
23.787473
 20
218.736803
 30
0.0
  0
LWPOLYLINE
  5
125
100
AcDbEntity
  8
text
 62
1
100
AcDbPolyline
 90
2
 70
0
 10
30.023963
 20
213.569427
 30
0.0
 10
24.678400
 20
219.627722
 30
0.0
  0
LWPOLYLINE
  5
126
100
AcDbEntity
  8
text
 62
1
100
AcDbPolyline
 90
2
 70
0
 10
30.023963
 20
213.569427
 30
0.0
 10
25.569328
 20
220.340474
 30
0.0
  0
LWPOLYLINE
  5
127
100
AcDbEntity
  8
text
 62
1
100
AcDbPolyline
 90
2
 70
0
 10
30.023963
 20
213.569427
 30
0.0
 10
26.638439
 20
220.875032
 30
0.0
  0
LWPOLYLINE
  5
128
100
AcDbEntity
  8
text
 62
1
100
AcDbPolyline
 90
2
 70
0
 10
30.023963
 20
213.569427
 30
0.0
 10
27.707553
 20
221.409589
 30
0.0
  0
LWPOLYLINE
  5
129
100
AcDbEntity
  8
text
 62
1
100
AcDbPolyline
 90
2
 70
0
 10
30.023963
 20
213.569427
 30
0.0
 10
28.954849
 20
221.587756
 30
0.0
  0
LWPOLYLINE
  5
12a
100
AcDbEntity
  8
text
 62
1
100
AcDbPolyline
 90
2
 70
0
 10
30.023963
 20
213.569427
 30
0.0
 10
30.023963
 20
221.765951
 30
0.0
  0
LWPOLYLINE
  5
12b
100
AcDbEntity
  8
text
 62
1
100
AcDbPolyline
 90
2
 70
0
 10
30.023963
 20
213.569427
 30
0.0
 10
31.093074
 20
221.587756
 30
0.0
  0
LWPOLYLINE
  5
12c
100
AcDbEntity
  8
text
 62
1
100
AcDbPolyline
 90
2
 70
0
 10
30.023963
 20
213.569427
 30
0.0
 10
32.340372
 20
221.409589
 30
0.0
  0
LWPOLYLINE
  5
12d
100
AcDbEntity
  8
text
 62
1
100
AcDbPolyline
 90
2
 70
0
 10
30.023963
 20
213.569427
 30
0.0
 10
33.409484
 20
220.875032
 30
0.0
  0
LWPOLYLINE
  5
12e
100
AcDbEntity
  8
text
 62
1
100
AcDbPolyline
 90
2
 70
0
 10
30.023963
 20
213.569427
 30
0.0
 10
34.478595
 20
220.340474
 30
0.0
  0
LWPOLYLINE
  5
12f
100
AcDbEntity
  8
text
 62
1
100
AcDbPolyline
 90
2
 70
0
 10
30.023963
 20
213.569427
 30
0.0
 10
35.369523
 20
219.627722
 30
0.0
  0
LWPOLYLINE
  5
130
100
AcDbEntity
  8
text
 62
1
100
AcDbPolyline
 90
2
 70
0
 10
30.023963
 20
213.569427
 30
0.0
 10
36.260450
 20
218.736803
 30
0.0
  0
LWPOLYLINE
  5
131
100
AcDbEntity
  8
text
 62
1
100
AcDbPolyline
 90
2
 70
0
 10
30.023963
 20
213.569427
 30
0.0
 10
36.973191
 20
217.845884
 30
0.0
  0
LWPOLYLINE
  5
132
100
AcDbEntity
  8
text
 62
1
100
AcDbPolyline
 90
2
 70
0
 10
30.023963
 20
213.569427
 30
0.0
 10
37.507748
 20
216.776770
 30
0.0
  0
LWPOLYLINE
  5
133
100
AcDbEntity
  8
text
 62
1
100
AcDbPolyline
 90
2
 70
0
 10
30.023963
 20
213.569427
 30
0.0
 10
37.864119
 20
215.529460
 30
0.0
  0
LWPOLYLINE
  5
134
100
AcDbEntity
  8
text
 62
1
100
AcDbPolyline
 90
2
 70
0
 10
30.023963
 20
213.569427
 30
0.0
 10
38.042305
 20
214.460346
 30
0.0
  0
LWPOLYLINE
  5
135
100
AcDbEntity
  8
text
 62
1
100
AcDbPolyline
 90
2
 70
0
 10
30.023963
 20
213.569427
 30
0.0
 10
38.042305
 20
213.391232
 30
0.0
  0
LWPOLYLINE
  5
136
100
AcDbEntity
  8
text
 62
1
100
AcDbPolyline
 90
2
 70
0
 10
30.023963
 20
213.569427
 30
0.0
 10
38.042305
 20
212.322118
 30
0.0
  0
LWPOLYLINE
  5
137
100
AcDbEntity
  8
text
 62
1
100
AcDbPolyline
 90
2
 70
0
 10
30.023963
 20
213.569427
 30
0.0
 10
37.685932
 20
211.074837
 30
0.0
  0
LWPOLYLINE
  5
138
100
AcDbEntity
  8
text
 62
1
100
AcDbPolyline
 90
2
 70
0
 10
30.023963
 20
213.569427
 30
0.0
 10
37.329562
 20
210.005722
 30
0.0
  0
LWPOLYLINE
  5
139
100
AcDbEntity
  8
text
 62
1
100
AcDbPolyline
 90
2
 70
0
 10
30.023963
 20
213.569427
 30
0.0
 10
36.616821
 20
208.936608
 30
0.0
  0
LWPOLYLINE
  5
13a
100
AcDbEntity
  8
text
 62
1
100
AcDbPolyline
 90
2
 70
0
 10
30.023963
 20
213.569427
 30
0.0
 10
35.904080
 20
208.045689
 30
0.0
  0
LWPOLYLINE
  5
13b
100
AcDbEntity
  8
text
 62
1
100
AcDbPolyline
 90
2
 70
0
 10
30.023963
 20
213.569427
 30
0.0
 10
35.013152
 20
207.154742
 30
0.0
  0
SPLINE
  5
13c
100
AcDbEntity
  8
text
 62
7
100
AcDbSpline
 70
0
 71
3
 72
10
 73
6
 74
4
 40
0.000000
 40
0.000000
 40
0.000000
 40
0.000000
 40
0.618325
 40
1.218577
 40
1.837842
 40
1.837842
 40
1.837842
 40
1.837842
 10
28.320015
 20
267.405931
 30
0.0
 10
28.287479
 20
267.613160
 30
0.0
 10
28.223359
 20
268.021563
 30
0.0
 10
27.752291
 20
268.492051
 30
0.0
 10
27.343574
 20
268.556026
 30
0.0
 10
27.136029
 20
268.588512
 30
0.0
 11
28.320015
 21
267.405931
 31
0.0
 11
28.158499
 21
268.002787
 31
0.0
 11
27.733874
 21
268.427048
 31
0.0
 11
27.136029
 21
268.588512
 31
0.0
  0
LWPOLYLINE
  5
13d
100
AcDbEntity
  8
text
 62
1
100
AcDbPolyline
 90
2
 70
0
 10
30.023963
 20
213.569427
 30
0.0
 10
34.122225
 20
206.620185
 30
0.0
  0
LWPOLYLINE
  5
13e
100
AcDbEntity
  8
text
 62
1
100
AcDbPolyline
 90
2
 70
0
 10
28.954849
 20
213.569427
 30
0.0
 10
31.093074
 20
213.569427
 30
0.0
  0
SPLINE
  5
13f
100
AcDbEntity
  8
text
 62
1
100
AcDbSpline
 70
0
 71
3
 72
19
 73
15
 74
13
 40
0.000000
 40
0.000000
 40
0.000000
 40
0.000000
 40
1.445420
 40
2.761381
 40
4.206798
 40
5.652215
 40
6.968175
 40
8.413595
 40
9.859014
 40
11.174974
 40
12.620391
 40
14.065809
 40
15.381770
 40
16.827190
 40
16.827190
 40
16.827190
 40
16.827190
 10
27.351180
 20
213.569427
 30
0.0
 10
27.408381
 20
214.060561
 30
0.0
 10
27.517660
 20
214.998840
 30
0.0
 10
28.601404
 20
216.051749
 30
0.0
 10
30.022048
 20
216.341909
 30
0.0
 10
31.453837
 20
216.051749
 30
0.0
 10
32.506139
 20
214.998840
 30
0.0
 10
32.796512
 20
213.569427
 30
0.0
 10
32.506139
 20
212.140014
 30
0.0
 10
31.453837
 20
211.087106
 30
0.0
 10
30.022048
 20
210.796945
 30
0.0
 10
28.601404
 20
211.087106
 30
0.0
 10
27.517660
 20
212.140014
 30
0.0
 10
27.408381
 20
213.078293
 30
0.0
 10
27.351180
 20
213.569427
 30
0.0
 11
27.351180
 21
213.569427
 31
0.0
 11
27.687753
 21
214.975114
 31
0.0
 11
28.618278
 21
215.905640
 31
0.0
 11
30.023963
 21
216.242213
 31
0.0
 11
31.429647
 21
215.905640
 31
0.0
 11
32.360171
 21
214.975114
 31
0.0
 11
32.696743
 21
213.569427
 31
0.0
 11
32.360171
 21
212.163740
 31
0.0
 11
31.429647
 21
211.233215
 31
0.0
 11
30.023963
 21
210.896642
 31
0.0
 11
28.618278
 21
211.233215
 31
0.0
 11
27.687753
 21
212.163740
 31
0.0
 11
27.351180
 21
213.569427
 31
0.0
  0
LWPOLYLINE
  5
140
100
AcDbEntity
  8
text
 62
1
100
AcDbPolyline
 90
2
 70
0
 10
30.023963
 20
212.500313
 30
0.0
 10
30.023963
 20
214.638541
 30
0.0
  0
SPLINE
  5
141
100
AcDbEntity
  8
text
 62
4
100
AcDbSpline
 70
0
 71
3
 72
31
 73
27
 74
25
 40
0.000000
 40
0.000000
 40
0.000000
 40
0.000000
 40
0.056655
 40
0.113683
 40
0.172629
 40
0.233202
 40
0.294633
 40
0.357354
 40
0.420076
 40
0.481507
 40
0.542080
 40
0.601026
 40
0.658054
 40
0.714709
 40
0.771364
 40
0.828392
 40
0.887338
 40
0.947911
 40
1.009342
 40
1.072063
 40
1.134785
 40
1.196216
 40
1.256789
 40
1.315735
 40
1.372763
 40
1.429418
 40
1.429418
 40
1.429418
 40
1.429418
 10
32.047628
 20
165.471305
 30
0.0
 10
32.046009
 20
165.452355
 30
0.0
 10
32.042759
 20
165.414331
 30
0.0
 10
32.017257
 20
165.361444
 30
0.0
 10
31.978729
 20
165.316253
 30
0.0
 10
31.928359
 20
165.281795
 30
0.0
 10
31.870081
 20
165.260209
 30
0.0
 10
31.807636
 20
165.252840
 30
0.0
 10
31.745198
 20
165.260209
 30
0.0
 10
31.686898
 20
165.281795
 30
0.0
 10
31.636604
 20
165.316253
 30
0.0
 10
31.597806
 20
165.361444
 30
0.0
 10
31.573270
 20
165.414331
 30
0.0
 10
31.564842
 20
165.471305
 30
0.0
 10
31.573270
 20
165.528278
 30
0.0
 10
31.597806
 20
165.581165
 30
0.0
 10
31.636604
 20
165.626356
 30
0.0
 10
31.686898
 20
165.660814
 30
0.0
 10
31.745198
 20
165.682401
 30
0.0
 10
31.807636
 20
165.689770
 30
0.0
 10
31.870081
 20
165.682401
 30
0.0
 10
31.928359
 20
165.660814
 30
0.0
 10
31.978729
 20
165.626356
 30
0.0
 10
32.017257
 20
165.581165
 30
0.0
 10
32.042759
 20
165.528278
 30
0.0
 10
32.046009
 20
165.490254
 30
0.0
 10
32.047628
 20
165.471305
 30
0.0
 11
32.047628
 21
165.471305
 31
0.0
 11
32.039406
 21
165.415250
 31
0.0
 11
32.015563
 21
165.363445
 31
0.0
 11
31.977336
 21
165.318575
 31
0.0
 11
31.927481
 21
165.284171
 31
0.0
 11
31.869920
 21
165.262713
 31
0.0
 11
31.807637
 21
165.255313
 31
0.0
 11
31.745354
 21
165.262713
 31
0.0
 11
31.687792
 21
165.284171
 31
0.0
 11
31.637937
 21
165.318575
 31
0.0
 11
31.599710
 21
165.363445
 31
0.0
 11
31.575868
 21
165.415250
 31
0.0
 11
31.567645
 21
165.471305
 31
0.0
 11
31.575868
 21
165.527360
 31
0.0
 11
31.599710
 21
165.579165
 31
0.0
 11
31.637937
 21
165.624034
 31
0.0
 11
31.687792
 21
165.658438
 31
0.0
 11
31.745354
 21
165.679896
 31
0.0
 11
31.807637
 21
165.687296
 31
0.0
 11
31.869920
 21
165.679896
 31
0.0
 11
31.927481
 21
165.658438
 31
0.0
 11
31.977336
 21
165.624034
 31
0.0
 11
32.015563
 21
165.579165
 31
0.0
 11
32.039406
 21
165.527360
 31
0.0
 11
32.047628
 21
165.471305
 31
0.0
  0
LWPOLYLINE
  5
142
100
AcDbEntity
  8
text
 62
4
100
AcDbPolyline
 90
2
 70
1
 10
32.047628
 20
165.471305
 30
0.0
 10
32.047628
 20
165.471305
 30
0.0
  0
SPLINE
  5
143
100
AcDbEntity
  8
text
 62
4
100
AcDbSpline
 70
0
 71
3
 72
31
 73
27
 74
25
 40
0.000000
 40
0.000000
 40
0.000000
 40
0.000000
 40
0.056655
 40
0.113683
 40
0.172629
 40
0.233202
 40
0.294633
 40
0.357354
 40
0.420076
 40
0.481507
 40
0.542080
 40
0.601026
 40
0.658054
 40
0.714709
 40
0.771364
 40
0.828392
 40
0.887338
 40
0.947911
 40
1.009342
 40
1.072063
 40
1.134785
 40
1.196216
 40
1.256789
 40
1.315735
 40
1.372763
 40
1.429418
 40
1.429418
 40
1.429418
 40
1.429418
 10
54.275679
 20
165.471305
 30
0.0
 10
54.274060
 20
165.452355
 30
0.0
 10
54.270810
 20
165.414331
 30
0.0
 10
54.245308
 20
165.361444
 30
0.0
 10
54.206780
 20
165.316253
 30
0.0
 10
54.156410
 20
165.281795
 30
0.0
 10
54.098131
 20
165.260209
 30
0.0
 10
54.035687
 20
165.252840
 30
0.0
 10
53.973249
 20
165.260209
 30
0.0
 10
53.914949
 20
165.281795
 30
0.0
 10
53.864654
 20
165.316253
 30
0.0
 10
53.825857
 20
165.361444
 30
0.0
 10
53.801321
 20
165.414331
 30
0.0
 10
53.792893
 20
165.471305
 30
0.0
 10
53.801321
 20
165.528278
 30
0.0
 10
53.825857
 20
165.581165
 30
0.0
 10
53.864654
 20
165.626356
 30
0.0
 10
53.914949
 20
165.660814
 30
0.0
 10
53.973249
 20
165.682401
 30
0.0
 10
54.035687
 20
165.689770
 30
0.0
 10
54.098131
 20
165.682401
 30
0.0
 10
54.156410
 20
165.660814
 30
0.0
 10
54.206780
 20
165.626356
 30
0.0
 10
54.245308
 20
165.581165
 30
0.0
 10
54.270810
 20
165.528278
 30
0.0
 10
54.274060
 20
165.490254
 30
0.0
 10
54.275679
 20
165.471305
 30
0.0
 11
54.275679
 21
165.471305
 31
0.0
 11
54.267457
 21
165.415250
 31
0.0
 11
54.243614
 21
165.363445
 31
0.0
 11
54.205387
 21
165.318575
 31
0.0
 11
54.155532
 21
165.284171
 31
0.0
 11
54.097971
 21
165.262713
 31
0.0
 11
54.035688
 21
165.255313
 31
0.0
 11
53.973404
 21
165.262713
 31
0.0
 11
53.915843
 21
165.284171
 31
0.0
 11
53.865988
 21
165.318575
 31
0.0
 11
53.827761
 21
165.363445
 31
0.0
 11
53.803919
 21
165.415250
 31
0.0
 11
53.795696
 21
165.471305
 31
0.0
 11
53.803919
 21
165.527360
 31
0.0
 11
53.827761
 21
165.579165
 31
0.0
 11
53.865988
 21
165.624034
 31
0.0
 11
53.915843
 21
165.658438
 31
0.0
 11
53.973404
 21
165.679896
 31
0.0
 11
54.035688
 21
165.687296
 31
0.0
 11
54.097971
 21
165.679896
 31
0.0
 11
54.155532
 21
165.658438
 31
0.0
 11
54.205387
 21
165.624034
 31
0.0
 11
54.243614
 21
165.579165
 31
0.0
 11
54.267457
 21
165.527360
 31
0.0
 11
54.275679
 21
165.471305
 31
0.0
  0
LWPOLYLINE
  5
144
100
AcDbEntity
  8
text
 62
4
100
AcDbPolyline
 90
2
 70
1
 10
54.275679
 20
165.471305
 30
0.0
 10
54.275679
 20
165.471305
 30
0.0
  0
SPLINE
  5
145
100
AcDbEntity
  8
text
 62
4
100
AcDbSpline
 70
0
 71
3
 72
31
 73
27
 74
25
 40
0.000000
 40
0.000000
 40
0.000000
 40
0.000000
 40
0.056655
 40
0.113683
 40
0.172629
 40
0.233202
 40
0.294633
 40
0.357354
 40
0.420076
 40
0.481507
 40
0.542080
 40
0.601026
 40
0.658054
 40
0.714709
 40
0.771364
 40
0.828392
 40
0.887338
 40
0.947911
 40
1.009342
 40
1.072063
 40
1.134785
 40
1.196216
 40
1.256789
 40
1.315735
 40
1.372763
 40
1.429418
 40
1.429418
 40
1.429418
 40
1.429418
 10
43.050225
 20
165.471305
 30
0.0
 10
43.048606
 20
165.452355
 30
0.0
 10
43.045356
 20
165.414331
 30
0.0
 10
43.019854
 20
165.361444
 30
0.0
 10
42.981326
 20
165.316253
 30
0.0
 10
42.930956
 20
165.281795
 30
0.0
 10
42.872678
 20
165.260209
 30
0.0
 10
42.810233
 20
165.252840
 30
0.0
 10
42.747795
 20
165.260209
 30
0.0
 10
42.689495
 20
165.281795
 30
0.0
 10
42.639201
 20
165.316253
 30
0.0
 10
42.600403
 20
165.361444
 30
0.0
 10
42.575867
 20
165.414331
 30
0.0
 10
42.567439
 20
165.471305
 30
0.0
 10
42.575867
 20
165.528278
 30
0.0
 10
42.600403
 20
165.581165
 30
0.0
 10
42.639201
 20
165.626356
 30
0.0
 10
42.689495
 20
165.660814
 30
0.0
 10
42.747795
 20
165.682401
 30
0.0
 10
42.810233
 20
165.689770
 30
0.0
 10
42.872678
 20
165.682401
 30
0.0
 10
42.930956
 20
165.660814
 30
0.0
 10
42.981326
 20
165.626356
 30
0.0
 10
43.019854
 20
165.581165
 30
0.0
 10
43.045356
 20
165.528278
 30
0.0
 10
43.048606
 20
165.490254
 30
0.0
 10
43.050225
 20
165.471305
 30
0.0
 11
43.050225
 21
165.471305
 31
0.0
 11
43.042003
 21
165.415250
 31
0.0
 11
43.018161
 21
165.363445
 31
0.0
 11
42.979934
 21
165.318575
 31
0.0
 11
42.930079
 21
165.284171
 31
0.0
 11
42.872517
 21
165.262713
 31
0.0
 11
42.810234
 21
165.255313
 31
0.0
 11
42.747951
 21
165.262713
 31
0.0
 11
42.690389
 21
165.284171
 31
0.0
 11
42.640534
 21
165.318575
 31
0.0
 11
42.602307
 21
165.363445
 31
0.0
 11
42.578465
 21
165.415250
 31
0.0
 11
42.570242
 21
165.471305
 31
0.0
 11
42.578465
 21
165.527360
 31
0.0
 11
42.602307
 21
165.579165
 31
0.0
 11
42.640534
 21
165.624034
 31
0.0
 11
42.690389
 21
165.658438
 31
0.0
 11
42.747951
 21
165.679896
 31
0.0
 11
42.810234
 21
165.687296
 31
0.0
 11
42.872517
 21
165.679896
 31
0.0
 11
42.930079
 21
165.658438
 31
0.0
 11
42.979934
 21
165.624034
 31
0.0
 11
43.018161
 21
165.579165
 31
0.0
 11
43.042003
 21
165.527360
 31
0.0
 11
43.050225
 21
165.471305
 31
0.0
  0
LWPOLYLINE
  5
146
100
AcDbEntity
  8
text
 62
4
100
AcDbPolyline
 90
2
 70
1
 10
43.050225
 20
165.471305
 30
0.0
 10
43.050225
 20
165.471305
 30
0.0
  0
LWPOLYLINE
  5
147
100
AcDbEntity
  8
text
 62
1
100
AcDbPolyline
 90
2
 70
0
 10
21.956863
 20
247.656842
 30
0.0
 10
24.317300
 20
247.656842
 30
0.0
  0
SPLINE
  5
148
100
AcDbEntity
  8
text
 62
1
100
AcDbSpline
 70
0
 71
3
 72
19
 73
15
 74
13
 40
0.000000
 40
0.000000
 40
0.000000
 40
0.000000
 40
1.596244
 40
3.049669
 40
4.645981
 40
6.242661
 40
7.695800
 40
9.291968
 40
10.887983
 40
12.341177
 40
13.937876
 40
15.534206
 40
16.987686
 40
18.583778
 40
18.583778
 40
18.583778
 40
18.583778
 10
20.184508
 20
247.656842
 30
0.0
 10
20.247716
 20
248.199221
 30
0.0
 10
20.368475
 20
249.235451
 30
0.0
 10
21.565492
 20
250.398158
 30
0.0
 10
23.134535
 20
250.718611
 30
0.0
 10
24.715949
 20
250.398351
 30
0.0
 10
25.877999
 20
249.235331
 30
0.0
 10
26.198309
 20
247.656888
 30
0.0
 10
25.877942
 20
246.078464
 30
0.0
 10
24.715971
 20
244.915429
 30
0.0
 10
23.134535
 20
244.595025
 30
0.0
 10
21.565470
 20
244.915623
 30
0.0
 10
20.368534
 20
246.078340
 30
0.0
 10
20.247733
 20
247.114523
 30
0.0
 10
20.184508
 20
247.656842
 30
0.0
 11
20.184508
 21
247.656842
 31
0.0
 11
20.556310
 21
249.209182
 31
0.0
 11
21.584121
 21
250.236824
 31
0.0
 11
23.136552
 21
250.608534
 31
0.0
 11
24.689363
 21
250.236824
 31
0.0
 11
25.716769
 21
249.209182
 31
0.0
 11
26.088244
 21
247.656842
 31
0.0
 11
25.716769
 21
246.104659
 31
0.0
 11
24.689363
 21
245.076939
 31
0.0
 11
23.136552
 21
244.705151
 31
0.0
 11
21.584121
 21
245.076939
 31
0.0
 11
20.556310
 21
246.104659
 31
0.0
 11
20.184508
 21
247.656842
 31
0.0
  0
LWPOLYLINE
  5
149
100
AcDbEntity
  8
text
 62
1
100
AcDbPolyline
 90
2
 70
0
 10
23.136552
 20
246.476095
 30
0.0
 10
23.136552
 20
248.837942
 30
0.0
  0
LWPOLYLINE
  5
14a
100
AcDbEntity
  8
text
 62
1
100
AcDbPolyline
 90
2
 70
0
 10
21.922291
 20
198.152990
 30
0.0
 10
24.282727
 20
198.152990
 30
0.0
  0
SPLINE
  5
14b
100
AcDbEntity
  8
text
 62
1
100
AcDbSpline
 70
0
 71
3
 72
19
 73
15
 74
13
 40
0.000000
 40
0.000000
 40
0.000000
 40
0.000000
 40
1.596244
 40
3.049669
 40
4.645981
 40
6.242661
 40
7.695800
 40
9.291968
 40
10.887983
 40
12.341177
 40
13.937876
 40
15.534206
 40
16.987686
 40
18.583778
 40
18.583778
 40
18.583778
 40
18.583778
 10
20.149936
 20
198.152990
 30
0.0
 10
20.213143
 20
198.695369
 30
0.0
 10
20.333903
 20
199.731599
 30
0.0
 10
21.530920
 20
200.894306
 30
0.0
 10
23.099963
 20
201.214759
 30
0.0
 10
24.681377
 20
200.894499
 30
0.0
 10
25.843427
 20
199.731479
 30
0.0
 10
26.163737
 20
198.153036
 30
0.0
 10
25.843370
 20
196.574612
 30
0.0
 10
24.681398
 20
195.411577
 30
0.0
 10
23.099963
 20
195.091173
 30
0.0
 10
21.530898
 20
195.411771
 30
0.0
 10
20.333961
 20
196.574488
 30
0.0
 10
20.213161
 20
197.610671
 30
0.0
 10
20.149936
 20
198.152990
 30
0.0
 11
20.149936
 21
198.152990
 31
0.0
 11
20.521737
 21
199.705330
 31
0.0
 11
21.549549
 21
200.732972
 31
0.0
 11
23.101980
 21
201.104682
 31
0.0
 11
24.654790
 21
200.732972
 31
0.0
 11
25.682197
 21
199.705330
 31
0.0
 11
26.053672
 21
198.152990
 31
0.0
 11
25.682197
 21
196.600807
 31
0.0
 11
24.654790
 21
195.573087
 31
0.0
 11
23.101980
 21
195.201299
 31
0.0
 11
21.549549
 21
195.573087
 31
0.0
 11
20.521737
 21
196.600807
 31
0.0
 11
20.149936
 21
198.152990
 31
0.0
  0
LWPOLYLINE
  5
14c
100
AcDbEntity
  8
text
 62
1
100
AcDbPolyline
 90
2
 70
0
 10
23.101980
 20
196.972243
 30
0.0
 10
23.101980
 20
199.334090
 30
0.0
  0
LWPOLYLINE
  5
14d
100
AcDbEntity
  8
text
 62
1
100
AcDbPolyline
 90
2
 70
0
 10
21.978197
 20
234.967160
 30
0.0
 10
24.338633
 20
234.967160
 30
0.0
  0
SPLINE
  5
14e
100
AcDbEntity
  8
text
 62
1
100
AcDbSpline
 70
0
 71
3
 72
19
 73
15
 74
13
 40
0.000000
 40
0.000000
 40
0.000000
 40
0.000000
 40
1.596244
 40
3.049669
 40
4.645981
 40
6.242661
 40
7.695800
 40
9.291968
 40
10.887983
 40
12.341177
 40
13.937876
 40
15.534206
 40
16.987686
 40
18.583778
 40
18.583778
 40
18.583778
 40
18.583778
 10
20.205841
 20
234.967160
 30
0.0
 10
20.269049
 20
235.509539
 30
0.0
 10
20.389809
 20
236.545769
 30
0.0
 10
21.586825
 20
237.708476
 30
0.0
 10
23.155869
 20
238.028929
 30
0.0
 10
24.737282
 20
237.708669
 30
0.0
 10
25.899332
 20
236.545649
 30
0.0
 10
26.219642
 20
234.967206
 30
0.0
 10
25.899275
 20
233.388782
 30
0.0
 10
24.737304
 20
232.225747
 30
0.0
 10
23.155869
 20
231.905343
 30
0.0
 10
21.586804
 20
232.225941
 30
0.0
 10
20.389867
 20
233.388658
 30
0.0
 10
20.269066
 20
234.424841
 30
0.0
 10
20.205841
 20
234.967160
 30
0.0
 11
20.205841
 21
234.967160
 31
0.0
 11
20.577643
 21
236.519500
 31
0.0
 11
21.605454
 21
237.547142
 31
0.0
 11
23.157886
 21
237.918852
 31
0.0
 11
24.710696
 21
237.547142
 31
0.0
 11
25.738102
 21
236.519500
 31
0.0
 11
26.109577
 21
234.967160
 31
0.0
 11
25.738102
 21
233.414977
 31
0.0
 11
24.710696
 21
232.387257
 31
0.0
 11
23.157886
 21
232.015469
 31
0.0
 11
21.605454
 21
232.387257
 31
0.0
 11
20.577643
 21
233.414977
 31
0.0
 11
20.205841
 21
234.967160
 31
0.0
  0
LWPOLYLINE
  5
14f
100
AcDbEntity
  8
text
 62
1
100
AcDbPolyline
 90
2
 70
0
 10
23.157886
 20
233.786413
 30
0.0
 10
23.157886
 20
236.148260
 30
0.0
  0
LWPOLYLINE
  5
150
100
AcDbEntity
  8
text
 62
1
100
AcDbPolyline
 90
2
 70
0
 10
22.013223
 20
185.430091
 30
0.0
 10
24.373659
 20
185.430091
 30
0.0
  0
SPLINE
  5
151
100
AcDbEntity
  8
text
 62
1
100
AcDbSpline
 70
0
 71
3
 72
19
 73
15
 74
13
 40
0.000000
 40
0.000000
 40
0.000000
 40
0.000000
 40
1.596244
 40
3.049669
 40
4.645981
 40
6.242661
 40
7.695800
 40
9.291968
 40
10.887983
 40
12.341177
 40
13.937876
 40
15.534206
 40
16.987686
 40
18.583778
 40
18.583778
 40
18.583778
 40
18.583778
 10
20.240868
 20
185.430091
 30
0.0
 10
20.304075
 20
185.972470
 30
0.0
 10
20.424835
 20
187.008700
 30
0.0
 10
21.621852
 20
188.171406
 30
0.0
 10
23.190895
 20
188.491859
 30
0.0
 10
24.772309
 20
188.171599
 30
0.0
 10
25.934359
 20
187.008579
 30
0.0
 10
26.254669
 20
185.430136
 30
0.0
 10
25.934302
 20
183.851712
 30
0.0
 10
24.772330
 20
182.688678
 30
0.0
 10
23.190895
 20
182.368273
 30
0.0
 10
21.621830
 20
182.688872
 30
0.0
 10
20.424893
 20
183.851588
 30
0.0
 10
20.304093
 20
184.887771
 30
0.0
 10
20.240868
 20
185.430091
 30
0.0
 11
20.240868
 21
185.430091
 31
0.0
 11
20.612669
 21
186.982431
 31
0.0
 11
21.640481
 21
188.010072
 31
0.0
 11
23.192912
 21
188.381782
 31
0.0
 11
24.745722
 21
188.010072
 31
0.0
 11
25.773129
 21
186.982431
 31
0.0
 11
26.144604
 21
185.430091
 31
0.0
 11
25.773129
 21
183.877908
 31
0.0
 11
24.745722
 21
182.850188
 31
0.0
 11
23.192912
 21
182.478399
 31
0.0
 11
21.640481
 21
182.850188
 31
0.0
 11
20.612669
 21
183.877908
 31
0.0
 11
20.240868
 21
185.430091
 31
0.0
  0
LWPOLYLINE
  5
152
100
AcDbEntity
  8
text
 62
1
100
AcDbPolyline
 90
2
 70
0
 10
23.192912
 20
184.249344
 30
0.0
 10
23.192912
 20
186.611191
 30
0.0
  0
LWPOLYLINE
  5
153
100
AcDbEntity
  8
text
 62
1
100
AcDbPolyline
 90
2
 70
0
 10
51.893752
 20
234.967160
 30
0.0
 10
54.254188
 20
234.967160
 30
0.0
  0
SPLINE
  5
154
100
AcDbEntity
  8
text
 62
1
100
AcDbSpline
 70
0
 71
3
 72
19
 73
15
 74
13
 40
0.000000
 40
0.000000
 40
0.000000
 40
0.000000
 40
1.596244
 40
3.049669
 40
4.645981
 40
6.242661
 40
7.695800
 40
9.291968
 40
10.887983
 40
12.341177
 40
13.937876
 40
15.534206
 40
16.987686
 40
18.583778
 40
18.583778
 40
18.583778
 40
18.583778
 10
50.121397
 20
234.967160
 30
0.0
 10
50.184604
 20
235.509539
 30
0.0
 10
50.305364
 20
236.545769
 30
0.0
 10
51.502381
 20
237.708476
 30
0.0
 10
53.071424
 20
238.028929
 30
0.0
 10
54.652837
 20
237.708669
 30
0.0
 10
55.814888
 20
236.545649
 30
0.0
 10
56.135198
 20
234.967206
 30
0.0
 10
55.814831
 20
233.388782
 30
0.0
 10
54.652859
 20
232.225747
 30
0.0
 10
53.071424
 20
231.905343
 30
0.0
 10
51.502359
 20
232.225941
 30
0.0
 10
50.305422
 20
233.388658
 30
0.0
 10
50.184622
 20
234.424841
 30
0.0
 10
50.121397
 20
234.967160
 30
0.0
 11
50.121397
 21
234.967160
 31
0.0
 11
50.493198
 21
236.519500
 31
0.0
 11
51.521010
 21
237.547142
 31
0.0
 11
53.073441
 21
237.918852
 31
0.0
 11
54.626251
 21
237.547142
 31
0.0
 11
55.653658
 21
236.519500
 31
0.0
 11
56.025133
 21
234.967160
 31
0.0
 11
55.653658
 21
233.414977
 31
0.0
 11
54.626251
 21
232.387257
 31
0.0
 11
53.073441
 21
232.015469
 31
0.0
 11
51.521010
 21
232.387257
 31
0.0
 11
50.493198
 21
233.414977
 31
0.0
 11
50.121397
 21
234.967160
 31
0.0
  0
LWPOLYLINE
  5
155
100
AcDbEntity
  8
text
 62
1
100
AcDbPolyline
 90
2
 70
0
 10
53.073441
 20
233.786413
 30
0.0
 10
53.073441
 20
236.148260
 30
0.0
  0
LWPOLYLINE
  5
156
100
AcDbEntity
  8
text
 62
1
100
AcDbPolyline
 90
2
 70
0
 10
51.893752
 20
247.656842
 30
0.0
 10
54.254188
 20
247.656842
 30
0.0
  0
LWPOLYLINE
  5
157
100
AcDbEntity
  8
text
 62
1
100
AcDbPolyline
 90
2
 70
0
 10
53.073441
 20
246.476095
 30
0.0
 10
53.073441
 20
248.837942
 30
0.0
  0
LWPOLYLINE
  5
158
100
AcDbEntity
  8
text
 62
1
100
AcDbPolyline
 90
4
 70
0
 10
40.239840
 20
212.044499
 30
0.0
 10
52.149522
 20
208.873819
 30
0.0
 10
52.150933
 20
202.090806
 30
0.0
 10
43.617766
 20
199.482404
 30
0.0
  0
SPLINE
  5
159
100
AcDbEntity
  8
text
 62
1
100
AcDbSpline
 70
0
 71
3
 72
19
 73
15
 74
13
 40
0.000000
 40
0.000000
 40
0.000000
 40
0.000000
 40
1.596244
 40
3.049669
 40
4.645981
 40
6.242661
 40
7.695800
 40
9.291968
 40
10.887983
 40
12.341177
 40
13.937876
 40
15.534206
 40
16.987686
 40
18.583778
 40
18.583778
 40
18.583778
 40
18.583778
 10
50.121397
 20
247.656842
 30
0.0
 10
50.184604
 20
248.199221
 30
0.0
 10
50.305364
 20
249.235451
 30
0.0
 10
51.502381
 20
250.398158
 30
0.0
 10
53.071424
 20
250.718611
 30
0.0
 10
54.652837
 20
250.398351
 30
0.0
 10
55.814888
 20
249.235331
 30
0.0
 10
56.135198
 20
247.656888
 30
0.0
 10
55.814831
 20
246.078464
 30
0.0
 10
54.652859
 20
244.915429
 30
0.0
 10
53.071424
 20
244.595025
 30
0.0
 10
51.502359
 20
244.915623
 30
0.0
 10
50.305422
 20
246.078340
 30
0.0
 10
50.184622
 20
247.114523
 30
0.0
 10
50.121397
 20
247.656842
 30
0.0
 11
50.121397
 21
247.656842
 31
0.0
 11
50.493198
 21
249.209182
 31
0.0
 11
51.521010
 21
250.236824
 31
0.0
 11
53.073441
 21
250.608534
 31
0.0
 11
54.626251
 21
250.236824
 31
0.0
 11
55.653658
 21
249.209182
 31
0.0
 11
56.025133
 21
247.656842
 31
0.0
 11
55.653658
 21
246.104659
 31
0.0
 11
54.626251
 21
245.076939
 31
0.0
 11
53.073441
 21
244.705151
 31
0.0
 11
51.521010
 21
245.076939
 31
0.0
 11
50.493198
 21
246.104659
 31
0.0
 11
50.121397
 21
247.656842
 31
0.0
  0
LWPOLYLINE
  5
15a
100
AcDbEntity
  8
text
 62
7
100
AcDbPolyline
 90
6
 70
0
 10
91.394059
 20
142.665590
 30
0.0
 10
73.128474
 20
142.665590
 30
0.0
 10
73.128474
 20
271.135714
 30
0.0
 10
123.704494
 20
271.135714
 30
0.0
 10
123.704494
 20
142.665590
 30
0.0
 10
73.128474
 20
142.665590
 30
0.0
  0
SPLINE
  5
15b
100
AcDbEntity
  8
text
 62
1
100
AcDbSpline
 70
0
 71
3
 72
31
 73
27
 74
25
 40
0.000000
 40
0.000000
 40
0.000000
 40
0.000000
 40
0.062937
 40
0.126191
 40
0.191411
 40
0.258260
 40
0.325918
 40
0.394921
 40
0.463924
 40
0.531582
 40
0.598431
 40
0.663651
 40
0.726905
 40
0.789842
 40
0.852778
 40
0.916033
 40
0.981253
 40
1.048102
 40
1.115760
 40
1.184763
 40
1.253766
 40
1.321424
 40
1.388273
 40
1.453493
 40
1.516747
 40
1.579684
 40
1.579684
 40
1.579684
 40
1.579684
 10
117.694885
 20
267.973848
 30
0.0
 10
117.693106
 20
267.952798
 30
0.0
 10
117.689539
 20
267.910593
 30
0.0
 10
117.661521
 20
267.851851
 30
0.0
 10
117.619161
 20
267.801627
 30
0.0
 10
117.563752
 20
267.763313
 30
0.0
 10
117.499620
 20
267.739304
 30
0.0
 10
117.430893
 20
267.731107
 30
0.0
 10
117.362174
 20
267.739304
 30
0.0
 10
117.298019
 20
267.763313
 30
0.0
 10
117.242692
 20
267.801627
 30
0.0
 10
117.200037
 20
267.851851
 30
0.0
 10
117.173079
 20
267.910593
 30
0.0
 10
117.163824
 20
267.973848
 30
0.0
 10
117.173079
 20
268.037103
 30
0.0
 10
117.200037
 20
268.095845
 30
0.0
 10
117.242692
 20
268.146069
 30
0.0
 10
117.298019
 20
268.184383
 30
0.0
 10
117.362174
 20
268.208392
 30
0.0
 10
117.430893
 20
268.216589
 30
0.0
 10
117.499620
 20
268.208392
 30
0.0
 10
117.563752
 20
268.184383
 30
0.0
 10
117.619161
 20
268.146069
 30
0.0
 10
117.661521
 20
268.095845
 30
0.0
 10
117.689539
 20
268.037103
 30
0.0
 10
117.693106
 20
267.994897
 30
0.0
 10
117.694885
 20
267.973848
 30
0.0
 11
117.694885
 21
267.973848
 31
0.0
 11
117.685840
 21
267.911565
 31
0.0
 11
117.659613
 21
267.854004
 31
0.0
 11
117.617564
 21
267.804149
 31
0.0
 11
117.562723
 21
267.765922
 31
0.0
 11
117.499406
 21
267.742080
 31
0.0
 11
117.430894
 21
267.733857
 31
0.0
 11
117.362383
 21
267.742080
 31
0.0
 11
117.299065
 21
267.765922
 31
0.0
 11
117.244225
 21
267.804149
 31
0.0
 11
117.202175
 21
267.854004
 31
0.0
 11
117.175948
 21
267.911565
 31
0.0
 11
117.166904
 21
267.973848
 31
0.0
 11
117.175948
 21
268.036131
 31
0.0
 11
117.202175
 21
268.093692
 31
0.0
 11
117.244225
 21
268.143547
 31
0.0
 11
117.299065
 21
268.181774
 31
0.0
 11
117.362383
 21
268.205616
 31
0.0
 11
117.430894
 21
268.213838
 31
0.0
 11
117.499406
 21
268.205616
 31
0.0
 11
117.562723
 21
268.181774
 31
0.0
 11
117.617564
 21
268.143547
 31
0.0
 11
117.659613
 21
268.093692
 31
0.0
 11
117.685840
 21
268.036131
 31
0.0
 11
117.694885
 21
267.973848
 31
0.0
  0
LWPOLYLINE
  5
15c
100
AcDbEntity
  8
text
 62
1
100
AcDbPolyline
 90
2
 70
1
 10
117.694885
 20
267.973848
 30
0.0
 10
117.694885
 20
267.973848
 30
0.0
  0
LWPOLYLINE
  5
15d
100
AcDbEntity
  8
text
 62
1
100
AcDbPolyline
 90
2
 70
1
 10
81.738766
 20
145.762510
 30
0.0
 10
81.738766
 20
145.762510
 30
0.0
  0
LWPOLYLINE
  5
15e
100
AcDbEntity
  8
text
 62
7
100
AcDbPolyline
 90
6
 70
1
 10
95.104118
 20
268.585703
 30
0.0
 10
91.730530
 20
268.585703
 30
0.0
 10
91.730530
 20
256.179832
 30
0.0
 10
95.104118
 20
256.179832
 30
0.0
 10
95.104118
 20
268.585703
 30
0.0
 10
95.104118
 20
268.585703
 30
0.0
  0
LWPOLYLINE
  5
15f
100
AcDbEntity
  8
text
 62
7
100
AcDbPolyline
 90
6
 70
1
 10
112.333012
 20
268.585703
 30
0.0
 10
108.958020
 20
268.585703
 30
0.0
 10
108.958020
 20
256.179832
 30
0.0
 10
112.333012
 20
256.179832
 30
0.0
 10
112.333012
 20
268.585703
 30
0.0
 10
112.333012
 20
268.585703
 30
0.0
  0
SPLINE
  5
160
100
AcDbEntity
  8
text
 62
1
100
AcDbSpline
 70
0
 71
3
 72
25
 73
21
 74
19
 40
0.000000
 40
0.000000
 40
0.000000
 40
0.000000
 40
0.044222
 40
0.089872
 40
0.138878
 40
0.191121
 40
0.245548
 40
0.301898
 40
0.413299
 40
0.511464
 40
0.601235
 40
0.691005
 40
0.789170
 40
0.900571
 40
0.956921
 40
1.011348
 40
1.063591
 40
1.112597
 40
1.158247
 40
1.202469
 40
1.202469
 40
1.202469
 40
1.202469
 10
81.738766
 20
145.762510
 30
0.0
 10
81.737277
 20
145.747707
 30
0.0
 10
81.734250
 20
145.717621
 30
0.0
 10
81.710858
 20
145.676314
 30
0.0
 10
81.676001
 20
145.641342
 30
0.0
 10
81.630751
 20
145.614834
 30
0.0
 10
81.578572
 20
145.598263
 30
0.0
 10
81.504475
 20
145.590750
 30
0.0
 10
81.414926
 20
145.608531
 30
0.0
 10
81.330755
 20
145.669176
 30
0.0
 10
81.295332
 20
145.762510
 30
0.0
 10
81.330755
 20
145.855844
 30
0.0
 10
81.414926
 20
145.916489
 30
0.0
 10
81.504475
 20
145.934270
 30
0.0
 10
81.578572
 20
145.926757
 30
0.0
 10
81.630751
 20
145.910186
 30
0.0
 10
81.676001
 20
145.883678
 30
0.0
 10
81.710858
 20
145.848706
 30
0.0
 10
81.734250
 20
145.807398
 30
0.0
 10
81.737277
 20
145.777313
 30
0.0
 10
81.738766
 20
145.762510
 30
0.0
 11
81.738766
 21
145.762510
 31
0.0
 11
81.731366
 21
145.718912
 31
0.0
 11
81.709907
 21
145.678619
 31
0.0
 11
81.675503
 21
145.643721
 31
0.0
 11
81.630633
 21
145.616962
 31
0.0
 11
81.578828
 21
145.600272
 31
0.0
 11
81.522773
 21
145.594517
 31
0.0
 11
81.413759
 21
145.617453
 31
0.0
 11
81.336272
 21
145.677721
 31
0.0
 11
81.306783
 21
145.762510
 31
0.0
 11
81.336272
 21
145.847299
 31
0.0
 11
81.413759
 21
145.907566
 31
0.0
 11
81.522773
 21
145.930503
 31
0.0
 11
81.578828
 21
145.924747
 31
0.0
 11
81.630633
 21
145.908058
 31
0.0
 11
81.675503
 21
145.881299
 31
0.0
 11
81.709907
 21
145.846401
 31
0.0
 11
81.731366
 21
145.806108
 31
0.0
 11
81.738766
 21
145.762510
 31
0.0
  0
LWPOLYLINE
  5
161
100
AcDbEntity
  8
text
 62
7
100
AcDbPolyline
 90
6
 70
1
 10
99.802141
 20
259.157354
 30
0.0
 10
104.258592
 20
259.157354
 30
0.0
 10
104.258592
 20
265.605373
 30
0.0
 10
96.428553
 20
265.605373
 30
0.0
 10
96.428553
 20
268.585703
 30
0.0
 10
106.455216
 20
268.588512
 30
0.0
  0
SPLINE
  5
162
100
AcDbEntity
  8
text
 62
7
100
AcDbSpline
 70
0
 71
3
 72
10
 73
6
 74
4
 40
0.000000
 40
0.000000
 40
0.000000
 40
0.000000
 40
0.616403
 40
1.215883
 40
1.834167
 40
1.834167
 40
1.834167
 40
1.834167
 10
106.455216
 20
268.588512
 30
0.0
 10
106.661767
 20
268.555891
 30
0.0
 10
107.069197
 20
268.491544
 30
0.0
 10
107.538411
 20
268.021173
 30
0.0
 10
107.602466
 20
267.613112
 30
0.0
 10
107.634989
 20
267.405931
 30
0.0
 11
106.455216
 21
268.588512
 31
0.0
 11
107.050096
 21
268.427048
 31
0.0
 11
107.473629
 21
268.002787
 31
0.0
 11
107.634989
 21
267.405931
 31
0.0
  0
LWPOLYLINE
  5
163
100
AcDbEntity
  8
text
 62
7
100
AcDbPolyline
 90
2
 70
1
 10
107.634989
 20
267.405931
 30
0.0
 10
107.632180
 20
257.358200
 30
0.0
  0
LWPOLYLINE
  5
164
100
AcDbEntity
  8
text
 62
7
100
AcDbPolyline
 90
6
 70
1
 10
106.449598
 20
256.178428
 30
0.0
 10
96.428553
 20
256.178428
 30
0.0
 10
96.428553
 20
263.901725
 30
0.0
 10
99.802141
 20
263.901725
 30
0.0
 10
99.802141
 20
259.157354
 30
0.0
 10
99.802141
 20
259.157354
 30
0.0
  0
SPLINE
  5
165
100
AcDbEntity
  8
text
 62
7
100
AcDbSpline
 70
0
 71
3
 72
10
 73
6
 74
4
 40
0.000000
 40
0.000000
 40
0.000000
 40
0.000000
 40
0.617445
 40
1.216043
 40
1.835370
 40
1.835370
 40
1.835370
 40
1.835370
 10
107.632180
 20
257.358200
 30
0.0
 10
107.599912
 20
257.151197
 30
0.0
 10
107.536362
 20
256.743508
 30
0.0
 10
107.065550
 20
256.273857
 30
0.0
 10
106.657232
 20
256.210597
 30
0.0
 10
106.449598
 20
256.178428
 30
0.0
 11
107.632180
 21
257.358200
 31
0.0
 11
107.471340
 21
256.762072
 31
0.0
 11
107.047704
 21
256.339164
 31
0.0
 11
106.449598
 21
256.178428
 31
0.0
  0
LWPOLYLINE
  5
166
100
AcDbEntity
  8
text
 62
7
100
AcDbPolyline
 90
14
 70
0
 10
89.224918
 20
268.588512
 30
0.0
 10
87.029698
 20
268.585703
 30
0.0
 10
76.880845
 20
268.585703
 30
0.0
 10
76.880845
 20
256.178428
 30
0.0
 10
80.253028
 20
256.178428
 30
0.0
 10
80.253028
 20
265.605373
 30
0.0
 10
81.955271
 20
265.605373
 30
0.0
 10
81.955271
 20
256.178428
 30
0.0
 10
85.330264
 20
256.178428
 30
0.0
 10
85.330264
 20
265.605373
 30
0.0
 10
87.029698
 20
265.605373
 30
0.0
 10
87.029698
 20
256.178428
 30
0.0
 10
90.406095
 20
256.178428
 30
0.0
 10
90.408904
 20
267.405931
 30
0.0
  0
LWPOLYLINE
  5
167
100
AcDbEntity
  8
text
 62
1
100
AcDbPolyline
 90
2
 70
0
 10
92.112852
 20
213.569427
 30
0.0
 10
87.658217
 20
205.551070
 30
0.0
  0
LWPOLYLINE
  5
168
100
AcDbEntity
  8
text
 62
1
100
AcDbPolyline
 90
2
 70
0
 10
92.112852
 20
213.569427
 30
0.0
 10
83.916322
 20
209.471165
 30
0.0
  0
LWPOLYLINE
  5
169
100
AcDbEntity
  8
text
 62
1
100
AcDbPolyline
 90
2
 70
0
 10
92.112852
 20
213.569427
 30
0.0
 10
83.025398
 20
214.638541
 30
0.0
  0
LWPOLYLINE
  5
16a
100
AcDbEntity
  8
text
 62
1
100
AcDbPolyline
 90
2
 70
0
 10
92.112852
 20
213.569427
 30
0.0
 10
85.163620
 20
219.449555
 30
0.0
  0
LWPOLYLINE
  5
16b
100
AcDbEntity
  8
text
 62
1
100
AcDbPolyline
 90
2
 70
0
 10
92.112852
 20
213.569427
 30
0.0
 10
89.618256
 20
222.300508
 30
0.0
  0
LWPOLYLINE
  5
16c
100
AcDbEntity
  8
text
 62
1
100
AcDbPolyline
 90
2
 70
0
 10
92.112852
 20
213.569427
 30
0.0
 10
94.607445
 20
222.300508
 30
0.0
  0
LWPOLYLINE
  5
16d
100
AcDbEntity
  8
text
 62
1
100
AcDbPolyline
 90
2
 70
0
 10
92.112852
 20
213.569427
 30
0.0
 10
99.062080
 20
219.449555
 30
0.0
  0
LWPOLYLINE
  5
16e
100
AcDbEntity
  8
text
 62
1
100
AcDbPolyline
 90
2
 70
0
 10
92.112852
 20
213.569427
 30
0.0
 10
101.200306
 20
214.638541
 30
0.0
  0
LWPOLYLINE
  5
16f
100
AcDbEntity
  8
text
 62
1
100
AcDbPolyline
 90
2
 70
0
 10
92.112852
 20
213.569427
 30
0.0
 10
100.309378
 20
209.471165
 30
0.0
  0
LWPOLYLINE
  5
170
100
AcDbEntity
  8
text
 62
1
100
AcDbPolyline
 90
2
 70
0
 10
92.112852
 20
213.569427
 30
0.0
 10
96.745671
 20
205.551070
 30
0.0
  0
LWPOLYLINE
  5
171
100
AcDbEntity
  8
text
 62
1
100
AcDbPolyline
 90
2
 70
0
 10
92.112852
 20
213.569427
 30
0.0
 10
88.192774
 20
206.620185
 30
0.0
  0
LWPOLYLINE
  5
172
100
AcDbEntity
  8
text
 62
1
100
AcDbPolyline
 90
2
 70
0
 10
92.112852
 20
213.569427
 30
0.0
 10
87.123659
 20
207.154742
 30
0.0
  0
LWPOLYLINE
  5
173
100
AcDbEntity
  8
text
 62
1
100
AcDbPolyline
 90
2
 70
0
 10
92.112852
 20
213.569427
 30
0.0
 10
86.232732
 20
208.045689
 30
0.0
  0
LWPOLYLINE
  5
174
100
AcDbEntity
  8
text
 62
1
100
AcDbPolyline
 90
2
 70
0
 10
92.112852
 20
213.569427
 30
0.0
 10
85.519991
 20
208.936608
 30
0.0
  0
LWPOLYLINE
  5
175
100
AcDbEntity
  8
text
 62
1
100
AcDbPolyline
 90
2
 70
0
 10
92.112852
 20
213.569427
 30
0.0
 10
84.807250
 20
210.005722
 30
0.0
  0
LWPOLYLINE
  5
176
100
AcDbEntity
  8
text
 62
1
100
AcDbPolyline
 90
2
 70
0
 10
92.112852
 20
213.569427
 30
0.0
 10
84.450880
 20
211.074837
 30
0.0
  0
LWPOLYLINE
  5
177
100
AcDbEntity
  8
text
 62
1
100
AcDbPolyline
 90
2
 70
0
 10
92.112852
 20
213.569427
 30
0.0
 10
84.094509
 20
212.322118
 30
0.0
  0
LWPOLYLINE
  5
178
100
AcDbEntity
  8
text
 62
1
100
AcDbPolyline
 90
2
 70
0
 10
92.112852
 20
213.569427
 30
0.0
 10
84.094509
 20
213.391232
 30
0.0
  0
LWPOLYLINE
  5
179
100
AcDbEntity
  8
text
 62
1
100
AcDbPolyline
 90
2
 70
0
 10
92.112852
 20
213.569427
 30
0.0
 10
84.094509
 20
214.460346
 30
0.0
  0
LWPOLYLINE
  5
17a
100
AcDbEntity
  8
text
 62
1
100
AcDbPolyline
 90
2
 70
0
 10
92.112852
 20
213.569427
 30
0.0
 10
84.272693
 20
215.529460
 30
0.0
  0
LWPOLYLINE
  5
17b
100
AcDbEntity
  8
text
 62
1
100
AcDbPolyline
 90
2
 70
0
 10
92.112852
 20
213.569427
 30
0.0
 10
84.629066
 20
216.776770
 30
0.0
  0
LWPOLYLINE
  5
17c
100
AcDbEntity
  8
text
 62
1
100
AcDbPolyline
 90
2
 70
0
 10
92.112852
 20
213.569427
 30
0.0
 10
85.163620
 20
217.845884
 30
0.0
  0
LWPOLYLINE
  5
17d
100
AcDbEntity
  8
text
 62
1
100
AcDbPolyline
 90
2
 70
0
 10
92.112852
 20
213.569427
 30
0.0
 10
85.876361
 20
218.736803
 30
0.0
  0
LWPOLYLINE
  5
17e
100
AcDbEntity
  8
text
 62
1
100
AcDbPolyline
 90
2
 70
0
 10
92.112852
 20
213.569427
 30
0.0
 10
86.767289
 20
219.627722
 30
0.0
  0
LWPOLYLINE
  5
17f
100
AcDbEntity
  8
text
 62
1
100
AcDbPolyline
 90
2
 70
0
 10
92.112852
 20
213.569427
 30
0.0
 10
87.658217
 20
220.340474
 30
0.0
  0
LWPOLYLINE
  5
180
100
AcDbEntity
  8
text
 62
1
100
AcDbPolyline
 90
2
 70
0
 10
92.112852
 20
213.569427
 30
0.0
 10
88.727328
 20
220.875032
 30
0.0
  0
LWPOLYLINE
  5
181
100
AcDbEntity
  8
text
 62
1
100
AcDbPolyline
 90
2
 70
0
 10
92.112852
 20
213.569427
 30
0.0
 10
89.796442
 20
221.409589
 30
0.0
  0
LWPOLYLINE
  5
182
100
AcDbEntity
  8
text
 62
1
100
AcDbPolyline
 90
2
 70
0
 10
92.112852
 20
213.569427
 30
0.0
 10
91.043737
 20
221.587756
 30
0.0
  0
LWPOLYLINE
  5
183
100
AcDbEntity
  8
text
 62
1
100
AcDbPolyline
 90
2
 70
0
 10
92.112852
 20
213.569427
 30
0.0
 10
92.112852
 20
221.765951
 30
0.0
  0
LWPOLYLINE
  5
184
100
AcDbEntity
  8
text
 62
1
100
AcDbPolyline
 90
2
 70
0
 10
92.112852
 20
213.569427
 30
0.0
 10
93.181963
 20
221.587756
 30
0.0
  0
LWPOLYLINE
  5
185
100
AcDbEntity
  8
text
 62
1
100
AcDbPolyline
 90
2
 70
0
 10
92.112852
 20
213.569427
 30
0.0
 10
94.429261
 20
221.409589
 30
0.0
  0
LWPOLYLINE
  5
186
100
AcDbEntity
  8
text
 62
1
100
AcDbPolyline
 90
2
 70
0
 10
92.112852
 20
213.569427
 30
0.0
 10
95.498372
 20
220.875032
 30
0.0
  0
LWPOLYLINE
  5
187
100
AcDbEntity
  8
text
 62
1
100
AcDbPolyline
 90
2
 70
0
 10
92.112852
 20
213.569427
 30
0.0
 10
96.567484
 20
220.340474
 30
0.0
  0
LWPOLYLINE
  5
188
100
AcDbEntity
  8
text
 62
1
100
AcDbPolyline
 90
2
 70
0
 10
92.112852
 20
213.569427
 30
0.0
 10
97.458411
 20
219.627722
 30
0.0
  0
LWPOLYLINE
  5
189
100
AcDbEntity
  8
text
 62
1
100
AcDbPolyline
 90
2
 70
0
 10
92.112852
 20
213.569427
 30
0.0
 10
98.349339
 20
218.736803
 30
0.0
  0
LWPOLYLINE
  5
18a
100
AcDbEntity
  8
text
 62
1
100
AcDbPolyline
 90
2
 70
0
 10
92.112852
 20
213.569427
 30
0.0
 10
99.062080
 20
217.845884
 30
0.0
  0
LWPOLYLINE
  5
18b
100
AcDbEntity
  8
text
 62
1
100
AcDbPolyline
 90
2
 70
0
 10
92.112852
 20
213.569427
 30
0.0
 10
99.596637
 20
216.776770
 30
0.0
  0
LWPOLYLINE
  5
18c
100
AcDbEntity
  8
text
 62
1
100
AcDbPolyline
 90
2
 70
0
 10
92.112852
 20
213.569427
 30
0.0
 10
99.953008
 20
215.529460
 30
0.0
  0
LWPOLYLINE
  5
18d
100
AcDbEntity
  8
text
 62
1
100
AcDbPolyline
 90
2
 70
0
 10
92.112852
 20
213.569427
 30
0.0
 10
100.131194
 20
214.460346
 30
0.0
  0
LWPOLYLINE
  5
18e
100
AcDbEntity
  8
text
 62
1
100
AcDbPolyline
 90
2
 70
0
 10
92.112852
 20
213.569427
 30
0.0
 10
100.131194
 20
213.391232
 30
0.0
  0
LWPOLYLINE
  5
18f
100
AcDbEntity
  8
text
 62
1
100
AcDbPolyline
 90
2
 70
0
 10
92.112852
 20
213.569427
 30
0.0
 10
100.131194
 20
212.322118
 30
0.0
  0
LWPOLYLINE
  5
190
100
AcDbEntity
  8
text
 62
1
100
AcDbPolyline
 90
2
 70
0
 10
92.112852
 20
213.569427
 30
0.0
 10
99.774821
 20
211.074837
 30
0.0
  0
LWPOLYLINE
  5
191
100
AcDbEntity
  8
text
 62
1
100
AcDbPolyline
 90
2
 70
0
 10
92.112852
 20
213.569427
 30
0.0
 10
99.418450
 20
210.005722
 30
0.0
  0
LWPOLYLINE
  5
192
100
AcDbEntity
  8
text
 62
1
100
AcDbPolyline
 90
2
 70
0
 10
92.112852
 20
213.569427
 30
0.0
 10
98.705710
 20
208.936608
 30
0.0
  0
LWPOLYLINE
  5
193
100
AcDbEntity
  8
text
 62
1
100
AcDbPolyline
 90
2
 70
0
 10
92.112852
 20
213.569427
 30
0.0
 10
97.992969
 20
208.045689
 30
0.0
  0
LWPOLYLINE
  5
194
100
AcDbEntity
  8
text
 62
1
100
AcDbPolyline
 90
2
 70
0
 10
92.112852
 20
213.569427
 30
0.0
 10
97.102041
 20
207.154742
 30
0.0
  0
SPLINE
  5
195
100
AcDbEntity
  8
text
 62
7
100
AcDbSpline
 70
0
 71
3
 72
10
 73
6
 74
4
 40
0.000000
 40
0.000000
 40
0.000000
 40
0.000000
 40
0.618325
 40
1.218577
 40
1.837842
 40
1.837842
 40
1.837842
 40
1.837842
 10
90.408904
 20
267.405931
 30
0.0
 10
90.376368
 20
267.613160
 30
0.0
 10
90.312248
 20
268.021563
 30
0.0
 10
89.841180
 20
268.492051
 30
0.0
 10
89.432463
 20
268.556026
 30
0.0
 10
89.224918
 20
268.588512
 30
0.0
 11
90.408904
 21
267.405931
 31
0.0
 11
90.247388
 21
268.002787
 31
0.0
 11
89.822763
 21
268.427048
 31
0.0
 11
89.224918
 21
268.588512
 31
0.0
  0
LWPOLYLINE
  5
196
100
AcDbEntity
  8
text
 62
1
100
AcDbPolyline
 90
2
 70
0
 10
92.112852
 20
213.569427
 30
0.0
 10
96.211113
 20
206.620185
 30
0.0
  0
LWPOLYLINE
  5
197
100
AcDbEntity
  8
text
 62
1
100
AcDbPolyline
 90
2
 70
0
 10
91.043737
 20
213.569427
 30
0.0
 10
93.181963
 20
213.569427
 30
0.0
  0
SPLINE
  5
198
100
AcDbEntity
  8
text
 62
1
100
AcDbSpline
 70
0
 71
3
 72
19
 73
15
 74
13
 40
0.000000
 40
0.000000
 40
0.000000
 40
0.000000
 40
1.445420
 40
2.761381
 40
4.206798
 40
5.652215
 40
6.968175
 40
8.413595
 40
9.859014
 40
11.174974
 40
12.620391
 40
14.065809
 40
15.381770
 40
16.827190
 40
16.827190
 40
16.827190
 40
16.827190
 10
89.440069
 20
213.569427
 30
0.0
 10
89.497270
 20
214.060561
 30
0.0
 10
89.606549
 20
214.998840
 30
0.0
 10
90.690293
 20
216.051749
 30
0.0
 10
92.110937
 20
216.341909
 30
0.0
 10
93.542726
 20
216.051749
 30
0.0
 10
94.595028
 20
214.998840
 30
0.0
 10
94.885401
 20
213.569427
 30
0.0
 10
94.595028
 20
212.140014
 30
0.0
 10
93.542726
 20
211.087106
 30
0.0
 10
92.110937
 20
210.796945
 30
0.0
 10
90.690293
 20
211.087106
 30
0.0
 10
89.606549
 20
212.140014
 30
0.0
 10
89.497270
 20
213.078293
 30
0.0
 10
89.440069
 20
213.569427
 30
0.0
 11
89.440069
 21
213.569427
 31
0.0
 11
89.776642
 21
214.975114
 31
0.0
 11
90.707166
 21
215.905640
 31
0.0
 11
92.112852
 21
216.242213
 31
0.0
 11
93.518536
 21
215.905640
 31
0.0
 11
94.449059
 21
214.975114
 31
0.0
 11
94.785632
 21
213.569427
 31
0.0
 11
94.449059
 21
212.163740
 31
0.0
 11
93.518536
 21
211.233215
 31
0.0
 11
92.112852
 21
210.896642
 31
0.0
 11
90.707166
 21
211.233215
 31
0.0
 11
89.776642
 21
212.163740
 31
0.0
 11
89.440069
 21
213.569427
 31
0.0
  0
LWPOLYLINE
  5
199
100
AcDbEntity
  8
text
 62
1
100
AcDbPolyline
 90
2
 70
0
 10
92.112852
 20
212.500313
 30
0.0
 10
92.112852
 20
214.638541
 30
0.0
  0
SPLINE
  5
19a
100
AcDbEntity
  8
text
 62
4
100
AcDbSpline
 70
0
 71
3
 72
31
 73
27
 74
25
 40
0.000000
 40
0.000000
 40
0.000000
 40
0.000000
 40
0.056655
 40
0.113683
 40
0.172629
 40
0.233202
 40
0.294633
 40
0.357354
 40
0.420076
 40
0.481507
 40
0.542080
 40
0.601026
 40
0.658054
 40
0.714709
 40
0.771364
 40
0.828392
 40
0.887338
 40
0.947911
 40
1.009342
 40
1.072063
 40
1.134785
 40
1.196216
 40
1.256789
 40
1.315735
 40
1.372763
 40
1.429418
 40
1.429418
 40
1.429418
 40
1.429418
 10
94.136517
 20
165.471305
 30
0.0
 10
94.134898
 20
165.452355
 30
0.0
 10
94.131648
 20
165.414331
 30
0.0
 10
94.106146
 20
165.361444
 30
0.0
 10
94.067618
 20
165.316253
 30
0.0
 10
94.017248
 20
165.281795
 30
0.0
 10
93.958969
 20
165.260209
 30
0.0
 10
93.896525
 20
165.252840
 30
0.0
 10
93.834087
 20
165.260209
 30
0.0
 10
93.775787
 20
165.281795
 30
0.0
 10
93.725492
 20
165.316253
 30
0.0
 10
93.686695
 20
165.361444
 30
0.0
 10
93.662159
 20
165.414331
 30
0.0
 10
93.653731
 20
165.471305
 30
0.0
 10
93.662159
 20
165.528278
 30
0.0
 10
93.686695
 20
165.581165
 30
0.0
 10
93.725492
 20
165.626356
 30
0.0
 10
93.775787
 20
165.660814
 30
0.0
 10
93.834087
 20
165.682401
 30
0.0
 10
93.896525
 20
165.689770
 30
0.0
 10
93.958969
 20
165.682401
 30
0.0
 10
94.017248
 20
165.660814
 30
0.0
 10
94.067618
 20
165.626356
 30
0.0
 10
94.106146
 20
165.581165
 30
0.0
 10
94.131648
 20
165.528278
 30
0.0
 10
94.134898
 20
165.490254
 30
0.0
 10
94.136517
 20
165.471305
 30
0.0
 11
94.136517
 21
165.471305
 31
0.0
 11
94.128295
 21
165.415250
 31
0.0
 11
94.104452
 21
165.363445
 31
0.0
 11
94.066225
 21
165.318575
 31
0.0
 11
94.016370
 21
165.284171
 31
0.0
 11
93.958809
 21
165.262713
 31
0.0
 11
93.896526
 21
165.255313
 31
0.0
 11
93.834243
 21
165.262713
 31
0.0
 11
93.776681
 21
165.284171
 31
0.0
 11
93.726826
 21
165.318575
 31
0.0
 11
93.688599
 21
165.363445
 31
0.0
 11
93.664757
 21
165.415250
 31
0.0
 11
93.656534
 21
165.471305
 31
0.0
 11
93.664757
 21
165.527360
 31
0.0
 11
93.688599
 21
165.579165
 31
0.0
 11
93.726826
 21
165.624034
 31
0.0
 11
93.776681
 21
165.658438
 31
0.0
 11
93.834243
 21
165.679896
 31
0.0
 11
93.896526
 21
165.687296
 31
0.0
 11
93.958809
 21
165.679896
 31
0.0
 11
94.016370
 21
165.658438
 31
0.0
 11
94.066225
 21
165.624034
 31
0.0
 11
94.104452
 21
165.579165
 31
0.0
 11
94.128295
 21
165.527360
 31
0.0
 11
94.136517
 21
165.471305
 31
0.0
  0
LWPOLYLINE
  5
19b
100
AcDbEntity
  8
text
 62
4
100
AcDbPolyline
 90
2
 70
1
 10
94.136517
 20
165.471305
 30
0.0
 10
94.136517
 20
165.471305
 30
0.0
  0
SPLINE
  5
19c
100
AcDbEntity
  8
text
 62
4
100
AcDbSpline
 70
0
 71
3
 72
31
 73
27
 74
25
 40
0.000000
 40
0.000000
 40
0.000000
 40
0.000000
 40
0.056655
 40
0.113683
 40
0.172629
 40
0.233202
 40
0.294633
 40
0.357354
 40
0.420076
 40
0.481507
 40
0.542080
 40
0.601026
 40
0.658054
 40
0.714709
 40
0.771364
 40
0.828392
 40
0.887338
 40
0.947911
 40
1.009342
 40
1.072063
 40
1.134785
 40
1.196216
 40
1.256789
 40
1.315735
 40
1.372763
 40
1.429418
 40
1.429418
 40
1.429418
 40
1.429418
 10
116.364568
 20
165.471305
 30
0.0
 10
116.362949
 20
165.452355
 30
0.0
 10
116.359699
 20
165.414331
 30
0.0
 10
116.334197
 20
165.361444
 30
0.0
 10
116.295669
 20
165.316253
 30
0.0
 10
116.245299
 20
165.281795
 30
0.0
 10
116.187020
 20
165.260209
 30
0.0
 10
116.124575
 20
165.252840
 30
0.0
 10
116.062138
 20
165.260209
 30
0.0
 10
116.003838
 20
165.281795
 30
0.0
 10
115.953543
 20
165.316253
 30
0.0
 10
115.914746
 20
165.361444
 30
0.0
 10
115.890210
 20
165.414331
 30
0.0
 10
115.881782
 20
165.471305
 30
0.0
 10
115.890210
 20
165.528278
 30
0.0
 10
115.914746
 20
165.581165
 30
0.0
 10
115.953543
 20
165.626356
 30
0.0
 10
116.003838
 20
165.660814
 30
0.0
 10
116.062138
 20
165.682401
 30
0.0
 10
116.124575
 20
165.689770
 30
0.0
 10
116.187020
 20
165.682401
 30
0.0
 10
116.245299
 20
165.660814
 30
0.0
 10
116.295669
 20
165.626356
 30
0.0
 10
116.334197
 20
165.581165
 30
0.0
 10
116.359699
 20
165.528278
 30
0.0
 10
116.362949
 20
165.490254
 30
0.0
 10
116.364568
 20
165.471305
 30
0.0
 11
116.364568
 21
165.471305
 31
0.0
 11
116.356346
 21
165.415250
 31
0.0
 11
116.332503
 21
165.363445
 31
0.0
 11
116.294276
 21
165.318575
 31
0.0
 11
116.244421
 21
165.284171
 31
0.0
 11
116.186860
 21
165.262713
 31
0.0
 11
116.124577
 21
165.255313
 31
0.0
 11
116.062293
 21
165.262713
 31
0.0
 11
116.004732
 21
165.284171
 31
0.0
 11
115.954877
 21
165.318575
 31
0.0
 11
115.916650
 21
165.363445
 31
0.0
 11
115.892807
 21
165.415250
 31
0.0
 11
115.884585
 21
165.471305
 31
0.0
 11
115.892807
 21
165.527360
 31
0.0
 11
115.916650
 21
165.579165
 31
0.0
 11
115.954877
 21
165.624034
 31
0.0
 11
116.004732
 21
165.658438
 31
0.0
 11
116.062293
 21
165.679896
 31
0.0
 11
116.124577
 21
165.687296
 31
0.0
 11
116.186860
 21
165.679896
 31
0.0
 11
116.244421
 21
165.658438
 31
0.0
 11
116.294276
 21
165.624034
 31
0.0
 11
116.332503
 21
165.579165
 31
0.0
 11
116.356346
 21
165.527360
 31
0.0
 11
116.364568
 21
165.471305
 31
0.0
  0
LWPOLYLINE
  5
19d
100
AcDbEntity
  8
text
 62
4
100
AcDbPolyline
 90
2
 70
1
 10
116.364568
 20
165.471305
 30
0.0
 10
116.364568
 20
165.471305
 30
0.0
  0
SPLINE
  5
19e
100
AcDbEntity
  8
text
 62
4
100
AcDbSpline
 70
0
 71
3
 72
31
 73
27
 74
25
 40
0.000000
 40
0.000000
 40
0.000000
 40
0.000000
 40
0.056655
 40
0.113683
 40
0.172629
 40
0.233202
 40
0.294633
 40
0.357354
 40
0.420076
 40
0.481507
 40
0.542080
 40
0.601026
 40
0.658054
 40
0.714709
 40
0.771364
 40
0.828392
 40
0.887338
 40
0.947911
 40
1.009342
 40
1.072063
 40
1.134785
 40
1.196216
 40
1.256789
 40
1.315735
 40
1.372763
 40
1.429418
 40
1.429418
 40
1.429418
 40
1.429418
 10
105.139114
 20
165.471305
 30
0.0
 10
105.137495
 20
165.452355
 30
0.0
 10
105.134245
 20
165.414331
 30
0.0
 10
105.108743
 20
165.361444
 30
0.0
 10
105.070215
 20
165.316253
 30
0.0
 10
105.019845
 20
165.281795
 30
0.0
 10
104.961566
 20
165.260209
 30
0.0
 10
104.899122
 20
165.252840
 30
0.0
 10
104.836684
 20
165.260209
 30
0.0
 10
104.778384
 20
165.281795
 30
0.0
 10
104.728089
 20
165.316253
 30
0.0
 10
104.689292
 20
165.361444
 30
0.0
 10
104.664756
 20
165.414331
 30
0.0
 10
104.656328
 20
165.471305
 30
0.0
 10
104.664756
 20
165.528278
 30
0.0
 10
104.689292
 20
165.581165
 30
0.0
 10
104.728089
 20
165.626356
 30
0.0
 10
104.778384
 20
165.660814
 30
0.0
 10
104.836684
 20
165.682401
 30
0.0
 10
104.899122
 20
165.689770
 30
0.0
 10
104.961566
 20
165.682401
 30
0.0
 10
105.019845
 20
165.660814
 30
0.0
 10
105.070215
 20
165.626356
 30
0.0
 10
105.108743
 20
165.581165
 30
0.0
 10
105.134245
 20
165.528278
 30
0.0
 10
105.137495
 20
165.490254
 30
0.0
 10
105.139114
 20
165.471305
 30
0.0
 11
105.139114
 21
165.471305
 31
0.0
 11
105.130892
 21
165.415250
 31
0.0
 11
105.107049
 21
165.363445
 31
0.0
 11
105.068822
 21
165.318575
 31
0.0
 11
105.018967
 21
165.284171
 31
0.0
 11
104.961406
 21
165.262713
 31
0.0
 11
104.899123
 21
165.255313
 31
0.0
 11
104.836840
 21
165.262713
 31
0.0
 11
104.779278
 21
165.284171
 31
0.0
 11
104.729423
 21
165.318575
 31
0.0
 11
104.691196
 21
165.363445
 31
0.0
 11
104.667354
 21
165.415250
 31
0.0
 11
104.659131
 21
165.471305
 31
0.0
 11
104.667354
 21
165.527360
 31
0.0
 11
104.691196
 21
165.579165
 31
0.0
 11
104.729423
 21
165.624034
 31
0.0
 11
104.779278
 21
165.658438
 31
0.0
 11
104.836840
 21
165.679896
 31
0.0
 11
104.899123
 21
165.687296
 31
0.0
 11
104.961406
 21
165.679896
 31
0.0
 11
105.018967
 21
165.658438
 31
0.0
 11
105.068822
 21
165.624034
 31
0.0
 11
105.107049
 21
165.579165
 31
0.0
 11
105.130892
 21
165.527360
 31
0.0
 11
105.139114
 21
165.471305
 31
0.0
  0
LWPOLYLINE
  5
19f
100
AcDbEntity
  8
text
 62
4
100
AcDbPolyline
 90
2
 70
1
 10
105.139114
 20
165.471305
 30
0.0
 10
105.139114
 20
165.471305
 30
0.0
  0
LWPOLYLINE
  5
1a0
100
AcDbEntity
  8
text
 62
1
100
AcDbPolyline
 90
2
 70
0
 10
84.045752
 20
247.656842
 30
0.0
 10
86.406188
 20
247.656842
 30
0.0
  0
SPLINE
  5
1a1
100
AcDbEntity
  8
text
 62
1
100
AcDbSpline
 70
0
 71
3
 72
19
 73
15
 74
13
 40
0.000000
 40
0.000000
 40
0.000000
 40
0.000000
 40
1.596244
 40
3.049669
 40
4.645981
 40
6.242661
 40
7.695800
 40
9.291968
 40
10.887983
 40
12.341177
 40
13.937876
 40
15.534206
 40
16.987686
 40
18.583778
 40
18.583778
 40
18.583778
 40
18.583778
 10
82.273397
 20
247.656842
 30
0.0
 10
82.336604
 20
248.199221
 30
0.0
 10
82.457364
 20
249.235451
 30
0.0
 10
83.654381
 20
250.398158
 30
0.0
 10
85.223424
 20
250.718611
 30
0.0
 10
86.804838
 20
250.398351
 30
0.0
 10
87.966888
 20
249.235331
 30
0.0
 10
88.287198
 20
247.656888
 30
0.0
 10
87.966831
 20
246.078464
 30
0.0
 10
86.804859
 20
244.915429
 30
0.0
 10
85.223424
 20
244.595025
 30
0.0
 10
83.654359
 20
244.915623
 30
0.0
 10
82.457422
 20
246.078340
 30
0.0
 10
82.336622
 20
247.114523
 30
0.0
 10
82.273397
 20
247.656842
 30
0.0
 11
82.273397
 21
247.656842
 31
0.0
 11
82.645198
 21
249.209182
 31
0.0
 11
83.673010
 21
250.236824
 31
0.0
 11
85.225441
 21
250.608534
 31
0.0
 11
86.778251
 21
250.236824
 31
0.0
 11
87.805658
 21
249.209182
 31
0.0
 11
88.177133
 21
247.656842
 31
0.0
 11
87.805658
 21
246.104659
 31
0.0
 11
86.778251
 21
245.076939
 31
0.0
 11
85.225441
 21
244.705151
 31
0.0
 11
83.673010
 21
245.076939
 31
0.0
 11
82.645198
 21
246.104659
 31
0.0
 11
82.273397
 21
247.656842
 31
0.0
  0
LWPOLYLINE
  5
1a2
100
AcDbEntity
  8
text
 62
1
100
AcDbPolyline
 90
2
 70
0
 10
85.225441
 20
246.476095
 30
0.0
 10
85.225441
 20
248.837942
 30
0.0
  0
LWPOLYLINE
  5
1a3
100
AcDbEntity
  8
text
 62
1
100
AcDbPolyline
 90
2
 70
0
 10
84.011180
 20
198.152990
 30
0.0
 10
86.371616
 20
198.152990
 30
0.0
  0
SPLINE
  5
1a4
100
AcDbEntity
  8
text
 62
1
100
AcDbSpline
 70
0
 71
3
 72
19
 73
15
 74
13
 40
0.000000
 40
0.000000
 40
0.000000
 40
0.000000
 40
1.596244
 40
3.049669
 40
4.645981
 40
6.242661
 40
7.695800
 40
9.291968
 40
10.887983
 40
12.341177
 40
13.937876
 40
15.534206
 40
16.987686
 40
18.583778
 40
18.583778
 40
18.583778
 40
18.583778
 10
82.238825
 20
198.152990
 30
0.0
 10
82.302032
 20
198.695369
 30
0.0
 10
82.422792
 20
199.731599
 30
0.0
 10
83.619809
 20
200.894306
 30
0.0
 10
85.188852
 20
201.214759
 30
0.0
 10
86.770265
 20
200.894499
 30
0.0
 10
87.932316
 20
199.731479
 30
0.0
 10
88.252626
 20
198.153036
 30
0.0
 10
87.932259
 20
196.574612
 30
0.0
 10
86.770287
 20
195.411577
 30
0.0
 10
85.188852
 20
195.091173
 30
0.0
 10
83.619787
 20
195.411771
 30
0.0
 10
82.422850
 20
196.574488
 30
0.0
 10
82.302050
 20
197.610671
 30
0.0
 10
82.238825
 20
198.152990
 30
0.0
 11
82.238825
 21
198.152990
 31
0.0
 11
82.610626
 21
199.705330
 31
0.0
 11
83.638438
 21
200.732972
 31
0.0
 11
85.190869
 21
201.104682
 31
0.0
 11
86.743679
 21
200.732972
 31
0.0
 11
87.771086
 21
199.705330
 31
0.0
 11
88.142561
 21
198.152990
 31
0.0
 11
87.771086
 21
196.600807
 31
0.0
 11
86.743679
 21
195.573087
 31
0.0
 11
85.190869
 21
195.201299
 31
0.0
 11
83.638438
 21
195.573087
 31
0.0
 11
82.610626
 21
196.600807
 31
0.0
 11
82.238825
 21
198.152990
 31
0.0
  0
LWPOLYLINE
  5
1a5
100
AcDbEntity
  8
text
 62
1
100
AcDbPolyline
 90
2
 70
0
 10
85.190869
 20
196.972243
 30
0.0
 10
85.190869
 20
199.334090
 30
0.0
  0
LWPOLYLINE
  5
1a6
100
AcDbEntity
  8
text
 62
1
100
AcDbPolyline
 90
2
 70
0
 10
84.067086
 20
234.967160
 30
0.0
 10
86.427522
 20
234.967160
 30
0.0
  0
SPLINE
  5
1a7
100
AcDbEntity
  8
text
 62
1
100
AcDbSpline
 70
0
 71
3
 72
19
 73
15
 74
13
 40
0.000000
 40
0.000000
 40
0.000000
 40
0.000000
 40
1.596244
 40
3.049669
 40
4.645981
 40
6.242661
 40
7.695800
 40
9.291968
 40
10.887983
 40
12.341177
 40
13.937876
 40
15.534206
 40
16.987686
 40
18.583778
 40
18.583778
 40
18.583778
 40
18.583778
 10
82.294730
 20
234.967160
 30
0.0
 10
82.357938
 20
235.509539
 30
0.0
 10
82.478697
 20
236.545769
 30
0.0
 10
83.675714
 20
237.708476
 30
0.0
 10
85.244757
 20
238.028929
 30
0.0
 10
86.826171
 20
237.708669
 30
0.0
 10
87.988221
 20
236.545649
 30
0.0
 10
88.308531
 20
234.967206
 30
0.0
 10
87.988164
 20
233.388782
 30
0.0
 10
86.826193
 20
232.225747
 30
0.0
 10
85.244757
 20
231.905343
 30
0.0
 10
83.675692
 20
232.225941
 30
0.0
 10
82.478756
 20
233.388658
 30
0.0
 10
82.357955
 20
234.424841
 30
0.0
 10
82.294730
 20
234.967160
 30
0.0
 11
82.294730
 21
234.967160
 31
0.0
 11
82.666532
 21
236.519500
 31
0.0
 11
83.694343
 21
237.547142
 31
0.0
 11
85.246774
 21
237.918852
 31
0.0
 11
86.799585
 21
237.547142
 31
0.0
 11
87.826991
 21
236.519500
 31
0.0
 11
88.198466
 21
234.967160
 31
0.0
 11
87.826991
 21
233.414977
 31
0.0
 11
86.799585
 21
232.387257
 31
0.0
 11
85.246774
 21
232.015469
 31
0.0
 11
83.694343
 21
232.387257
 31
0.0
 11
82.666532
 21
233.414977
 31
0.0
 11
82.294730
 21
234.967160
 31
0.0
  0
LWPOLYLINE
  5
1a8
100
AcDbEntity
  8
text
 62
1
100
AcDbPolyline
 90
2
 70
0
 10
85.246774
 20
233.786413
 30
0.0
 10
85.246774
 20
236.148260
 30
0.0
  0
LWPOLYLINE
  5
1a9
100
AcDbEntity
  8
text
 62
1
100
AcDbPolyline
 90
2
 70
0
 10
84.102112
 20
185.430091
 30
0.0
 10
86.462548
 20
185.430091
 30
0.0
  0
SPLINE
  5
1aa
100
AcDbEntity
  8
text
 62
1
100
AcDbSpline
 70
0
 71
3
 72
19
 73
15
 74
13
 40
0.000000
 40
0.000000
 40
0.000000
 40
0.000000
 40
1.596244
 40
3.049669
 40
4.645981
 40
6.242661
 40
7.695800
 40
9.291968
 40
10.887983
 40
12.341177
 40
13.937876
 40
15.534206
 40
16.987686
 40
18.583778
 40
18.583778
 40
18.583778
 40
18.583778
 10
82.329757
 20
185.430091
 30
0.0
 10
82.392964
 20
185.972470
 30
0.0
 10
82.513724
 20
187.008700
 30
0.0
 10
83.710741
 20
188.171406
 30
0.0
 10
85.279784
 20
188.491859
 30
0.0
 10
86.861197
 20
188.171599
 30
0.0
 10
88.023248
 20
187.008579
 30
0.0
 10
88.343558
 20
185.430136
 30
0.0
 10
88.023191
 20
183.851712
 30
0.0
 10
86.861219
 20
182.688678
 30
0.0
 10
85.279784
 20
182.368273
 30
0.0
 10
83.710719
 20
182.688872
 30
0.0
 10
82.513782
 20
183.851588
 30
0.0
 10
82.392982
 20
184.887771
 30
0.0
 10
82.329757
 20
185.430091
 30
0.0
 11
82.329757
 21
185.430091
 31
0.0
 11
82.701558
 21
186.982431
 31
0.0
 11
83.729370
 21
188.010072
 31
0.0
 11
85.281801
 21
188.381782
 31
0.0
 11
86.834611
 21
188.010072
 31
0.0
 11
87.862018
 21
186.982431
 31
0.0
 11
88.233493
 21
185.430091
 31
0.0
 11
87.862018
 21
183.877908
 31
0.0
 11
86.834611
 21
182.850188
 31
0.0
 11
85.281801
 21
182.478399
 31
0.0
 11
83.729370
 21
182.850188
 31
0.0
 11
82.701558
 21
183.877908
 31
0.0
 11
82.329757
 21
185.430091
 31
0.0
  0
LWPOLYLINE
  5
1ab
100
AcDbEntity
  8
text
 62
1
100
AcDbPolyline
 90
2
 70
0
 10
85.281801
 20
184.249344
 30
0.0
 10
85.281801
 20
186.611191
 30
0.0
  0
LWPOLYLINE
  5
1ac
100
AcDbEntity
  8
text
 62
1
100
AcDbPolyline
 90
2
 70
0
 10
113.982641
 20
234.967160
 30
0.0
 10
116.343077
 20
234.967160
 30
0.0
  0
SPLINE
  5
1ad
100
AcDbEntity
  8
text
 62
1
100
AcDbSpline
 70
0
 71
3
 72
19
 73
15
 74
13
 40
0.000000
 40
0.000000
 40
0.000000
 40
0.000000
 40
1.596244
 40
3.049669
 40
4.645981
 40
6.242661
 40
7.695800
 40
9.291968
 40
10.887983
 40
12.341177
 40
13.937876
 40
15.534206
 40
16.987686
 40
18.583778
 40
18.583778
 40
18.583778
 40
18.583778
 10
112.210286
 20
234.967160
 30
0.0
 10
112.273493
 20
235.509539
 30
0.0
 10
112.394253
 20
236.545769
 30
0.0
 10
113.591270
 20
237.708476
 30
0.0
 10
115.160313
 20
238.028929
 30
0.0
 10
116.741726
 20
237.708669
 30
0.0
 10
117.903776
 20
236.545649
 30
0.0
 10
118.224087
 20
234.967206
 30
0.0
 10
117.903720
 20
233.388782
 30
0.0
 10
116.741748
 20
232.225747
 30
0.0
 10
115.160313
 20
231.905343
 30
0.0
 10
113.591248
 20
232.225941
 30
0.0
 10
112.394311
 20
233.388658
 30
0.0
 10
112.273510
 20
234.424841
 30
0.0
 10
112.210286
 20
234.967160
 30
0.0
 11
112.210286
 21
234.967160
 31
0.0
 11
112.582087
 21
236.519500
 31
0.0
 11
113.609899
 21
237.547142
 31
0.0
 11
115.162330
 21
237.918852
 31
0.0
 11
116.715140
 21
237.547142
 31
0.0
 11
117.742547
 21
236.519500
 31
0.0
 11
118.114022
 21
234.967160
 31
0.0
 11
117.742547
 21
233.414977
 31
0.0
 11
116.715140
 21
232.387257
 31
0.0
 11
115.162330
 21
232.015469
 31
0.0
 11
113.609899
 21
232.387257
 31
0.0
 11
112.582087
 21
233.414977
 31
0.0
 11
112.210286
 21
234.967160
 31
0.0
  0
LWPOLYLINE
  5
1ae
100
AcDbEntity
  8
text
 62
1
100
AcDbPolyline
 90
2
 70
0
 10
115.162330
 20
233.786413
 30
0.0
 10
115.162330
 20
236.148260
 30
0.0
  0
LWPOLYLINE
  5
1af
100
AcDbEntity
  8
text
 62
1
100
AcDbPolyline
 90
2
 70
0
 10
113.982641
 20
247.656842
 30
0.0
 10
116.343077
 20
247.656842
 30
0.0
  0
LWPOLYLINE
  5
1b0
100
AcDbEntity
  8
text
 62
1
100
AcDbPolyline
 90
2
 70
0
 10
115.162330
 20
246.476095
 30
0.0
 10
115.162330
 20
248.837942
 30
0.0
  0
LWPOLYLINE
  5
1b1
100
AcDbEntity
  8
text
 62
1
100
AcDbPolyline
 90
4
 70
0
 10
102.328729
 20
212.044499
 30
0.0
 10
114.238411
 20
208.873819
 30
0.0
 10
114.239822
 20
202.090806
 30
0.0
 10
105.706655
 20
199.482404
 30
0.0
  0
SPLINE
  5
1b2
100
AcDbEntity
  8
text
 62
1
100
AcDbSpline
 70
0
 71
3
 72
19
 73
15
 74
13
 40
0.000000
 40
0.000000
 40
0.000000
 40
0.000000
 40
1.596244
 40
3.049669
 40
4.645981
 40
6.242661
 40
7.695800
 40
9.291968
 40
10.887983
 40
12.341177
 40
13.937876
 40
15.534206
 40
16.987686
 40
18.583778
 40
18.583778
 40
18.583778
 40
18.583778
 10
112.210286
 20
247.656842
 30
0.0
 10
112.273493
 20
248.199221
 30
0.0
 10
112.394253
 20
249.235451
 30
0.0
 10
113.591270
 20
250.398158
 30
0.0
 10
115.160313
 20
250.718611
 30
0.0
 10
116.741726
 20
250.398351
 30
0.0
 10
117.903776
 20
249.235331
 30
0.0
 10
118.224087
 20
247.656888
 30
0.0
 10
117.903720
 20
246.078464
 30
0.0
 10
116.741748
 20
244.915429
 30
0.0
 10
115.160313
 20
244.595025
 30
0.0
 10
113.591248
 20
244.915623
 30
0.0
 10
112.394311
 20
246.078340
 30
0.0
 10
112.273510
 20
247.114523
 30
0.0
 10
112.210286
 20
247.656842
 30
0.0
 11
112.210286
 21
247.656842
 31
0.0
 11
112.582087
 21
249.209182
 31
0.0
 11
113.609899
 21
250.236824
 31
0.0
 11
115.162330
 21
250.608534
 31
0.0
 11
116.715140
 21
250.236824
 31
0.0
 11
117.742547
 21
249.209182
 31
0.0
 11
118.114022
 21
247.656842
 31
0.0
 11
117.742547
 21
246.104659
 31
0.0
 11
116.715140
 21
245.076939
 31
0.0
 11
115.162330
 21
244.705151
 31
0.0
 11
113.609899
 21
245.076939
 31
0.0
 11
112.582087
 21
246.104659
 31
0.0
 11
112.210286
 21
247.656842
 31
0.0
  0
LWPOLYLINE
  5
1b3
100
AcDbEntity
  8
text
 62
7
100
AcDbPolyline
 90
6
 70
0
 10
153.482948
 20
142.665590
 30
0.0
 10
135.217363
 20
142.665590
 30
0.0
 10
135.217363
 20
271.135714
 30
0.0
 10
185.793383
 20
271.135714
 30
0.0
 10
185.793383
 20
142.665590
 30
0.0
 10
135.217363
 20
142.665590
 30
0.0
  0
SPLINE
  5
1b4
100
AcDbEntity
  8
text
 62
1
100
AcDbSpline
 70
0
 71
3
 72
31
 73
27
 74
25
 40
0.000000
 40
0.000000
 40
0.000000
 40
0.000000
 40
0.062937
 40
0.126191
 40
0.191411
 40
0.258260
 40
0.325918
 40
0.394921
 40
0.463924
 40
0.531582
 40
0.598431
 40
0.663651
 40
0.726905
 40
0.789842
 40
0.852778
 40
0.916033
 40
0.981253
 40
1.048102
 40
1.115760
 40
1.184763
 40
1.253766
 40
1.321424
 40
1.388273
 40
1.453493
 40
1.516747
 40
1.579684
 40
1.579684
 40
1.579684
 40
1.579684
 10
179.783774
 20
267.973848
 30
0.0
 10
179.781995
 20
267.952798
 30
0.0
 10
179.778427
 20
267.910593
 30
0.0
 10
179.750410
 20
267.851851
 30
0.0
 10
179.708050
 20
267.801627
 30
0.0
 10
179.652640
 20
267.763313
 30
0.0
 10
179.588509
 20
267.739304
 30
0.0
 10
179.519782
 20
267.731107
 30
0.0
 10
179.451063
 20
267.739304
 30
0.0
 10
179.386908
 20
267.763313
 30
0.0
 10
179.331581
 20
267.801627
 30
0.0
 10
179.288926
 20
267.851851
 30
0.0
 10
179.261968
 20
267.910593
 30
0.0
 10
179.252713
 20
267.973848
 30
0.0
 10
179.261968
 20
268.037103
 30
0.0
 10
179.288926
 20
268.095845
 30
0.0
 10
179.331581
 20
268.146069
 30
0.0
 10
179.386908
 20
268.184383
 30
0.0
 10
179.451063
 20
268.208392
 30
0.0
 10
179.519782
 20
268.216589
 30
0.0
 10
179.588509
 20
268.208392
 30
0.0
 10
179.652640
 20
268.184383
 30
0.0
 10
179.708050
 20
268.146069
 30
0.0
 10
179.750410
 20
268.095845
 30
0.0
 10
179.778427
 20
268.037103
 30
0.0
 10
179.781995
 20
267.994897
 30
0.0
 10
179.783774
 20
267.973848
 30
0.0
 11
179.783774
 21
267.973848
 31
0.0
 11
179.774729
 21
267.911565
 31
0.0
 11
179.748502
 21
267.854004
 31
0.0
 11
179.706453
 21
267.804149
 31
0.0
 11
179.651612
 21
267.765922
 31
0.0
 11
179.588295
 21
267.742080
 31
0.0
 11
179.519783
 21
267.733857
 31
0.0
 11
179.451272
 21
267.742080
 31
0.0
 11
179.387954
 21
267.765922
 31
0.0
 11
179.333114
 21
267.804149
 31
0.0
 11
179.291064
 21
267.854004
 31
0.0
 11
179.264837
 21
267.911565
 31
0.0
 11
179.255793
 21
267.973848
 31
0.0
 11
179.264837
 21
268.036131
 31
0.0
 11
179.291064
 21
268.093692
 31
0.0
 11
179.333114
 21
268.143547
 31
0.0
 11
179.387954
 21
268.181774
 31
0.0
 11
179.451272
 21
268.205616
 31
0.0
 11
179.519783
 21
268.213838
 31
0.0
 11
179.588295
 21
268.205616
 31
0.0
 11
179.651612
 21
268.181774
 31
0.0
 11
179.706453
 21
268.143547
 31
0.0
 11
179.748502
 21
268.093692
 31
0.0
 11
179.774729
 21
268.036131
 31
0.0
 11
179.783774
 21
267.973848
 31
0.0
  0
LWPOLYLINE
  5
1b5
100
AcDbEntity
  8
text
 62
1
100
AcDbPolyline
 90
2
 70
1
 10
179.783774
 20
267.973848
 30
0.0
 10
179.783774
 20
267.973848
 30
0.0
  0
LWPOLYLINE
  5
1b6
100
AcDbEntity
  8
text
 62
1
100
AcDbPolyline
 90
2
 70
1
 10
143.827655
 20
145.762510
 30
0.0
 10
143.827655
 20
145.762510
 30
0.0
  0
LWPOLYLINE
  5
1b7
100
AcDbEntity
  8
text
 62
7
100
AcDbPolyline
 90
6
 70
1
 10
157.193007
 20
268.585703
 30
0.0
 10
153.819419
 20
268.585703
 30
0.0
 10
153.819419
 20
256.179832
 30
0.0
 10
157.193007
 20
256.179832
 30
0.0
 10
157.193007
 20
268.585703
 30
0.0
 10
157.193007
 20
268.585703
 30
0.0
  0
LWPOLYLINE
  5
1b8
100
AcDbEntity
  8
text
 62
7
100
AcDbPolyline
 90
6
 70
1
 10
174.421901
 20
268.585703
 30
0.0
 10
171.046909
 20
268.585703
 30
0.0
 10
171.046909
 20
256.179832
 30
0.0
 10
174.421901
 20
256.179832
 30
0.0
 10
174.421901
 20
268.585703
 30
0.0
 10
174.421901
 20
268.585703
 30
0.0
  0
SPLINE
  5
1b9
100
AcDbEntity
  8
text
 62
1
100
AcDbSpline
 70
0
 71
3
 72
25
 73
21
 74
19
 40
0.000000
 40
0.000000
 40
0.000000
 40
0.000000
 40
0.044222
 40
0.089872
 40
0.138878
 40
0.191121
 40
0.245548
 40
0.301898
 40
0.413299
 40
0.511464
 40
0.601235
 40
0.691005
 40
0.789170
 40
0.900571
 40
0.956921
 40
1.011348
 40
1.063591
 40
1.112597
 40
1.158247
 40
1.202469
 40
1.202469
 40
1.202469
 40
1.202469
 10
143.827655
 20
145.762510
 30
0.0
 10
143.826166
 20
145.747707
 30
0.0
 10
143.823139
 20
145.717621
 30
0.0
 10
143.799747
 20
145.676314
 30
0.0
 10
143.764890
 20
145.641342
 30
0.0
 10
143.719640
 20
145.614834
 30
0.0
 10
143.667461
 20
145.598263
 30
0.0
 10
143.593364
 20
145.590750
 30
0.0
 10
143.503814
 20
145.608531
 30
0.0
 10
143.419644
 20
145.669176
 30
0.0
 10
143.384221
 20
145.762510
 30
0.0
 10
143.419644
 20
145.855844
 30
0.0
 10
143.503814
 20
145.916489
 30
0.0
 10
143.593364
 20
145.934270
 30
0.0
 10
143.667461
 20
145.926757
 30
0.0
 10
143.719640
 20
145.910186
 30
0.0
 10
143.764890
 20
145.883678
 30
0.0
 10
143.799747
 20
145.848706
 30
0.0
 10
143.823139
 20
145.807398
 30
0.0
 10
143.826166
 20
145.777313
 30
0.0
 10
143.827655
 20
145.762510
 30
0.0
 11
143.827655
 21
145.762510
 31
0.0
 11
143.820255
 21
145.718912
 31
0.0
 11
143.798796
 21
145.678619
 31
0.0
 11
143.764392
 21
145.643721
 31
0.0
 11
143.719522
 21
145.616962
 31
0.0
 11
143.667717
 21
145.600272
 31
0.0
 11
143.611662
 21
145.594517
 31
0.0
 11
143.502648
 21
145.617453
 31
0.0
 11
143.425161
 21
145.677721
 31
0.0
 11
143.395672
 21
145.762510
 31
0.0
 11
143.425161
 21
145.847299
 31
0.0
 11
143.502648
 21
145.907566
 31
0.0
 11
143.611662
 21
145.930503
 31
0.0
 11
143.667717
 21
145.924747
 31
0.0
 11
143.719522
 21
145.908058
 31
0.0
 11
143.764392
 21
145.881299
 31
0.0
 11
143.798796
 21
145.846401
 31
0.0
 11
143.820255
 21
145.806108
 31
0.0
 11
143.827655
 21
145.762510
 31
0.0
  0
LWPOLYLINE
  5
1ba
100
AcDbEntity
  8
text
 62
7
100
AcDbPolyline
 90
6
 70
1
 10
161.891030
 20
259.157354
 30
0.0
 10
166.347481
 20
259.157354
 30
0.0
 10
166.347481
 20
265.605373
 30
0.0
 10
158.517442
 20
265.605373
 30
0.0
 10
158.517442
 20
268.585703
 30
0.0
 10
168.544105
 20
268.588512
 30
0.0
  0
SPLINE
  5
1bb
100
AcDbEntity
  8
text
 62
7
100
AcDbSpline
 70
0
 71
3
 72
10
 73
6
 74
4
 40
0.000000
 40
0.000000
 40
0.000000
 40
0.000000
 40
0.616403
 40
1.215883
 40
1.834167
 40
1.834167
 40
1.834167
 40
1.834167
 10
168.544105
 20
268.588512
 30
0.0
 10
168.750656
 20
268.555891
 30
0.0
 10
169.158086
 20
268.491544
 30
0.0
 10
169.627299
 20
268.021173
 30
0.0
 10
169.691355
 20
267.613112
 30
0.0
 10
169.723878
 20
267.405931
 30
0.0
 11
168.544105
 21
268.588512
 31
0.0
 11
169.138985
 21
268.427048
 31
0.0
 11
169.562517
 21
268.002787
 31
0.0
 11
169.723878
 21
267.405931
 31
0.0
  0
LWPOLYLINE
  5
1bc
100
AcDbEntity
  8
text
 62
7
100
AcDbPolyline
 90
2
 70
1
 10
169.723878
 20
267.405931
 30
0.0
 10
169.721069
 20
257.358200
 30
0.0
  0
LWPOLYLINE
  5
1bd
100
AcDbEntity
  8
text
 62
7
100
AcDbPolyline
 90
6
 70
1
 10
168.538487
 20
256.178428
 30
0.0
 10
158.517442
 20
256.178428
 30
0.0
 10
158.517442
 20
263.901725
 30
0.0
 10
161.891030
 20
263.901725
 30
0.0
 10
161.891030
 20
259.157354
 30
0.0
 10
161.891030
 20
259.157354
 30
0.0
  0
SPLINE
  5
1be
100
AcDbEntity
  8
text
 62
7
100
AcDbSpline
 70
0
 71
3
 72
10
 73
6
 74
4
 40
0.000000
 40
0.000000
 40
0.000000
 40
0.000000
 40
0.617445
 40
1.216043
 40
1.835370
 40
1.835370
 40
1.835370
 40
1.835370
 10
169.721069
 20
257.358200
 30
0.0
 10
169.688801
 20
257.151197
 30
0.0
 10
169.625251
 20
256.743508
 30
0.0
 10
169.154439
 20
256.273857
 30
0.0
 10
168.746121
 20
256.210597
 30
0.0
 10
168.538487
 20
256.178428
 30
0.0
 11
169.721069
 21
257.358200
 31
0.0
 11
169.560229
 21
256.762072
 31
0.0
 11
169.136592
 21
256.339164
 31
0.0
 11
168.538487
 21
256.178428
 31
0.0
  0
LWPOLYLINE
  5
1bf
100
AcDbEntity
  8
text
 62
7
100
AcDbPolyline
 90
14
 70
0
 10
151.313807
 20
268.588512
 30
0.0
 10
149.118587
 20
268.585703
 30
0.0
 10
138.969733
 20
268.585703
 30
0.0
 10
138.969733
 20
256.178428
 30
0.0
 10
142.341917
 20
256.178428
 30
0.0
 10
142.341917
 20
265.605373
 30
0.0
 10
144.044160
 20
265.605373
 30
0.0
 10
144.044160
 20
256.178428
 30
0.0
 10
147.419153
 20
256.178428
 30
0.0
 10
147.419153
 20
265.605373
 30
0.0
 10
149.118587
 20
265.605373
 30
0.0
 10
149.118587
 20
256.178428
 30
0.0
 10
152.494984
 20
256.178428
 30
0.0
 10
152.497793
 20
267.405931
 30
0.0
  0
LWPOLYLINE
  5
1c0
100
AcDbEntity
  8
text
 62
1
100
AcDbPolyline
 90
2
 70
0
 10
154.201741
 20
213.569427
 30
0.0
 10
149.747105
 20
205.551070
 30
0.0
  0
LWPOLYLINE
  5
1c1
100
AcDbEntity
  8
text
 62
1
100
AcDbPolyline
 90
2
 70
0
 10
154.201741
 20
213.569427
 30
0.0
 10
146.005211
 20
209.471165
 30
0.0
  0
LWPOLYLINE
  5
1c2
100
AcDbEntity
  8
text
 62
1
100
AcDbPolyline
 90
2
 70
0
 10
154.201741
 20
213.569427
 30
0.0
 10
145.114287
 20
214.638541
 30
0.0
  0
LWPOLYLINE
  5
1c3
100
AcDbEntity
  8
text
 62
1
100
AcDbPolyline
 90
2
 70
0
 10
154.201741
 20
213.569427
 30
0.0
 10
147.252509
 20
219.449555
 30
0.0
  0
LWPOLYLINE
  5
1c4
100
AcDbEntity
  8
text
 62
1
100
AcDbPolyline
 90
2
 70
0
 10
154.201741
 20
213.569427
 30
0.0
 10
151.707144
 20
222.300508
 30
0.0
  0
LWPOLYLINE
  5
1c5
100
AcDbEntity
  8
text
 62
1
100
AcDbPolyline
 90
2
 70
0
 10
154.201741
 20
213.569427
 30
0.0
 10
156.696334
 20
222.300508
 30
0.0
  0
LWPOLYLINE
  5
1c6
100
AcDbEntity
  8
text
 62
1
100
AcDbPolyline
 90
2
 70
0
 10
154.201741
 20
213.569427
 30
0.0
 10
161.150969
 20
219.449555
 30
0.0
  0
LWPOLYLINE
  5
1c7
100
AcDbEntity
  8
text
 62
1
100
AcDbPolyline
 90
2
 70
0
 10
154.201741
 20
213.569427
 30
0.0
 10
163.289194
 20
214.638541
 30
0.0
  0
LWPOLYLINE
  5
1c8
100
AcDbEntity
  8
text
 62
1
100
AcDbPolyline
 90
2
 70
0
 10
154.201741
 20
213.569427
 30
0.0
 10
162.398267
 20
209.471165
 30
0.0
  0
LWPOLYLINE
  5
1c9
100
AcDbEntity
  8
text
 62
1
100
AcDbPolyline
 90
2
 70
0
 10
154.201741
 20
213.569427
 30
0.0
 10
158.834559
 20
205.551070
 30
0.0
  0
LWPOLYLINE
  5
1ca
100
AcDbEntity
  8
text
 62
1
100
AcDbPolyline
 90
2
 70
0
 10
154.201741
 20
213.569427
 30
0.0
 10
150.281663
 20
206.620185
 30
0.0
  0
LWPOLYLINE
  5
1cb
100
AcDbEntity
  8
text
 62
1
100
AcDbPolyline
 90
2
 70
0
 10
154.201741
 20
213.569427
 30
0.0
 10
149.212548
 20
207.154742
 30
0.0
  0
LWPOLYLINE
  5
1cc
100
AcDbEntity
  8
text
 62
1
100
AcDbPolyline
 90
2
 70
0
 10
154.201741
 20
213.569427
 30
0.0
 10
148.321621
 20
208.045689
 30
0.0
  0
LWPOLYLINE
  5
1cd
100
AcDbEntity
  8
text
 62
1
100
AcDbPolyline
 90
2
 70
0
 10
154.201741
 20
213.569427
 30
0.0
 10
147.608880
 20
208.936608
 30
0.0
  0
LWPOLYLINE
  5
1ce
100
AcDbEntity
  8
text
 62
1
100
AcDbPolyline
 90
2
 70
0
 10
154.201741
 20
213.569427
 30
0.0
 10
146.896139
 20
210.005722
 30
0.0
  0
LWPOLYLINE
  5
1cf
100
AcDbEntity
  8
text
 62
1
100
AcDbPolyline
 90
2
 70
0
 10
154.201741
 20
213.569427
 30
0.0
 10
146.539768
 20
211.074837
 30
0.0
  0
LWPOLYLINE
  5
1d0
100
AcDbEntity
  8
text
 62
1
100
AcDbPolyline
 90
2
 70
0
 10
154.201741
 20
213.569427
 30
0.0
 10
146.183398
 20
212.322118
 30
0.0
  0
LWPOLYLINE
  5
1d1
100
AcDbEntity
  8
text
 62
1
100
AcDbPolyline
 90
2
 70
0
 10
154.201741
 20
213.569427
 30
0.0
 10
146.183398
 20
213.391232
 30
0.0
  0
LWPOLYLINE
  5
1d2
100
AcDbEntity
  8
text
 62
1
100
AcDbPolyline
 90
2
 70
0
 10
154.201741
 20
213.569427
 30
0.0
 10
146.183398
 20
214.460346
 30
0.0
  0
LWPOLYLINE
  5
1d3
100
AcDbEntity
  8
text
 62
1
100
AcDbPolyline
 90
2
 70
0
 10
154.201741
 20
213.569427
 30
0.0
 10
146.361582
 20
215.529460
 30
0.0
  0
LWPOLYLINE
  5
1d4
100
AcDbEntity
  8
text
 62
1
100
AcDbPolyline
 90
2
 70
0
 10
154.201741
 20
213.569427
 30
0.0
 10
146.717955
 20
216.776770
 30
0.0
  0
LWPOLYLINE
  5
1d5
100
AcDbEntity
  8
text
 62
1
100
AcDbPolyline
 90
2
 70
0
 10
154.201741
 20
213.569427
 30
0.0
 10
147.252509
 20
217.845884
 30
0.0
  0
LWPOLYLINE
  5
1d6
100
AcDbEntity
  8
text
 62
1
100
AcDbPolyline
 90
2
 70
0
 10
154.201741
 20
213.569427
 30
0.0
 10
147.965250
 20
218.736803
 30
0.0
  0
LWPOLYLINE
  5
1d7
100
AcDbEntity
  8
text
 62
1
100
AcDbPolyline
 90
2
 70
0
 10
154.201741
 20
213.569427
 30
0.0
 10
148.856178
 20
219.627722
 30
0.0
  0
LWPOLYLINE
  5
1d8
100
AcDbEntity
  8
text
 62
1
100
AcDbPolyline
 90
2
 70
0
 10
154.201741
 20
213.569427
 30
0.0
 10
149.747105
 20
220.340474
 30
0.0
  0
LWPOLYLINE
  5
1d9
100
AcDbEntity
  8
text
 62
1
100
AcDbPolyline
 90
2
 70
0
 10
154.201741
 20
213.569427
 30
0.0
 10
150.816217
 20
220.875032
 30
0.0
  0
LWPOLYLINE
  5
1da
100
AcDbEntity
  8
text
 62
1
100
AcDbPolyline
 90
2
 70
0
 10
154.201741
 20
213.569427
 30
0.0
 10
151.885331
 20
221.409589
 30
0.0
  0
LWPOLYLINE
  5
1db
100
AcDbEntity
  8
text
 62
1
100
AcDbPolyline
 90
2
 70
0
 10
154.201741
 20
213.569427
 30
0.0
 10
153.132626
 20
221.587756
 30
0.0
  0
LWPOLYLINE
  5
1dc
100
AcDbEntity
  8
text
 62
1
100
AcDbPolyline
 90
2
 70
0
 10
154.201741
 20
213.569427
 30
0.0
 10
154.201741
 20
221.765951
 30
0.0
  0
LWPOLYLINE
  5
1dd
100
AcDbEntity
  8
text
 62
1
100
AcDbPolyline
 90
2
 70
0
 10
154.201741
 20
213.569427
 30
0.0
 10
155.270852
 20
221.587756
 30
0.0
  0
LWPOLYLINE
  5
1de
100
AcDbEntity
  8
text
 62
1
100
AcDbPolyline
 90
2
 70
0
 10
154.201741
 20
213.569427
 30
0.0
 10
156.518150
 20
221.409589
 30
0.0
  0
LWPOLYLINE
  5
1df
100
AcDbEntity
  8
text
 62
1
100
AcDbPolyline
 90
2
 70
0
 10
154.201741
 20
213.569427
 30
0.0
 10
157.587261
 20
220.875032
 30
0.0
  0
LWPOLYLINE
  5
1e0
100
AcDbEntity
  8
text
 62
1
100
AcDbPolyline
 90
2
 70
0
 10
154.201741
 20
213.569427
 30
0.0
 10
158.656373
 20
220.340474
 30
0.0
  0
LWPOLYLINE
  5
1e1
100
AcDbEntity
  8
text
 62
1
100
AcDbPolyline
 90
2
 70
0
 10
154.201741
 20
213.569427
 30
0.0
 10
159.547300
 20
219.627722
 30
0.0
  0
LWPOLYLINE
  5
1e2
100
AcDbEntity
  8
text
 62
1
100
AcDbPolyline
 90
2
 70
0
 10
154.201741
 20
213.569427
 30
0.0
 10
160.438228
 20
218.736803
 30
0.0
  0
LWPOLYLINE
  5
1e3
100
AcDbEntity
  8
text
 62
1
100
AcDbPolyline
 90
2
 70
0
 10
154.201741
 20
213.569427
 30
0.0
 10
161.150969
 20
217.845884
 30
0.0
  0
LWPOLYLINE
  5
1e4
100
AcDbEntity
  8
text
 62
1
100
AcDbPolyline
 90
2
 70
0
 10
154.201741
 20
213.569427
 30
0.0
 10
161.685526
 20
216.776770
 30
0.0
  0
LWPOLYLINE
  5
1e5
100
AcDbEntity
  8
text
 62
1
100
AcDbPolyline
 90
2
 70
0
 10
154.201741
 20
213.569427
 30
0.0
 10
162.041896
 20
215.529460
 30
0.0
  0
LWPOLYLINE
  5
1e6
100
AcDbEntity
  8
text
 62
1
100
AcDbPolyline
 90
2
 70
0
 10
154.201741
 20
213.569427
 30
0.0
 10
162.220083
 20
214.460346
 30
0.0
  0
LWPOLYLINE
  5
1e7
100
AcDbEntity
  8
text
 62
1
100
AcDbPolyline
 90
2
 70
0
 10
154.201741
 20
213.569427
 30
0.0
 10
162.220083
 20
213.391232
 30
0.0
  0
LWPOLYLINE
  5
1e8
100
AcDbEntity
  8
text
 62
1
100
AcDbPolyline
 90
2
 70
0
 10
154.201741
 20
213.569427
 30
0.0
 10
162.220083
 20
212.322118
 30
0.0
  0
LWPOLYLINE
  5
1e9
100
AcDbEntity
  8
text
 62
1
100
AcDbPolyline
 90
2
 70
0
 10
154.201741
 20
213.569427
 30
0.0
 10
161.863710
 20
211.074837
 30
0.0
  0
LWPOLYLINE
  5
1ea
100
AcDbEntity
  8
text
 62
1
100
AcDbPolyline
 90
2
 70
0
 10
154.201741
 20
213.569427
 30
0.0
 10
161.507339
 20
210.005722
 30
0.0
  0
LWPOLYLINE
  5
1eb
100
AcDbEntity
  8
text
 62
1
100
AcDbPolyline
 90
2
 70
0
 10
154.201741
 20
213.569427
 30
0.0
 10
160.794598
 20
208.936608
 30
0.0
  0
LWPOLYLINE
  5
1ec
100
AcDbEntity
  8
text
 62
1
100
AcDbPolyline
 90
2
 70
0
 10
154.201741
 20
213.569427
 30
0.0
 10
160.081857
 20
208.045689
 30
0.0
  0
LWPOLYLINE
  5
1ed
100
AcDbEntity
  8
text
 62
1
100
AcDbPolyline
 90
2
 70
0
 10
154.201741
 20
213.569427
 30
0.0
 10
159.190930
 20
207.154742
 30
0.0
  0
SPLINE
  5
1ee
100
AcDbEntity
  8
text
 62
7
100
AcDbSpline
 70
0
 71
3
 72
10
 73
6
 74
4
 40
0.000000
 40
0.000000
 40
0.000000
 40
0.000000
 40
0.618325
 40
1.218577
 40
1.837842
 40
1.837842
 40
1.837842
 40
1.837842
 10
152.497793
 20
267.405931
 30
0.0
 10
152.465257
 20
267.613160
 30
0.0
 10
152.401137
 20
268.021563
 30
0.0
 10
151.930069
 20
268.492051
 30
0.0
 10
151.521352
 20
268.556026
 30
0.0
 10
151.313807
 20
268.588512
 30
0.0
 11
152.497793
 21
267.405931
 31
0.0
 11
152.336276
 21
268.002787
 31
0.0
 11
151.911652
 21
268.427048
 31
0.0
 11
151.313807
 21
268.588512
 31
0.0
  0
LWPOLYLINE
  5
1ef
100
AcDbEntity
  8
text
 62
1
100
AcDbPolyline
 90
2
 70
0
 10
154.201741
 20
213.569427
 30
0.0
 10
158.300002
 20
206.620185
 30
0.0
  0
LWPOLYLINE
  5
1f0
100
AcDbEntity
  8
text
 62
1
100
AcDbPolyline
 90
2
 70
0
 10
153.132626
 20
213.569427
 30
0.0
 10
155.270852
 20
213.569427
 30
0.0
  0
SPLINE
  5
1f1
100
AcDbEntity
  8
text
 62
1
100
AcDbSpline
 70
0
 71
3
 72
19
 73
15
 74
13
 40
0.000000
 40
0.000000
 40
0.000000
 40
0.000000
 40
1.445420
 40
2.761381
 40
4.206798
 40
5.652215
 40
6.968175
 40
8.413595
 40
9.859014
 40
11.174974
 40
12.620391
 40
14.065809
 40
15.381770
 40
16.827190
 40
16.827190
 40
16.827190
 40
16.827190
 10
151.528958
 20
213.569427
 30
0.0
 10
151.586159
 20
214.060561
 30
0.0
 10
151.695438
 20
214.998840
 30
0.0
 10
152.779182
 20
216.051749
 30
0.0
 10
154.199825
 20
216.341909
 30
0.0
 10
155.631615
 20
216.051749
 30
0.0
 10
156.683917
 20
214.998840
 30
0.0
 10
156.974290
 20
213.569427
 30
0.0
 10
156.683917
 20
212.140014
 30
0.0
 10
155.631615
 20
211.087106
 30
0.0
 10
154.199825
 20
210.796945
 30
0.0
 10
152.779182
 20
211.087106
 30
0.0
 10
151.695438
 20
212.140014
 30
0.0
 10
151.586159
 20
213.078293
 30
0.0
 10
151.528958
 20
213.569427
 30
0.0
 11
151.528958
 21
213.569427
 31
0.0
 11
151.865531
 21
214.975114
 31
0.0
 11
152.796055
 21
215.905640
 31
0.0
 11
154.201741
 21
216.242213
 31
0.0
 11
155.607425
 21
215.905640
 31
0.0
 11
156.537948
 21
214.975114
 31
0.0
 11
156.874520
 21
213.569427
 31
0.0
 11
156.537948
 21
212.163740
 31
0.0
 11
155.607425
 21
211.233215
 31
0.0
 11
154.201741
 21
210.896642
 31
0.0
 11
152.796055
 21
211.233215
 31
0.0
 11
151.865531
 21
212.163740
 31
0.0
 11
151.528958
 21
213.569427
 31
0.0
  0
LWPOLYLINE
  5
1f2
100
AcDbEntity
  8
text
 62
1
100
AcDbPolyline
 90
2
 70
0
 10
154.201741
 20
212.500313
 30
0.0
 10
154.201741
 20
214.638541
 30
0.0
  0
SPLINE
  5
1f3
100
AcDbEntity
  8
text
 62
4
100
AcDbSpline
 70
0
 71
3
 72
31
 73
27
 74
25
 40
0.000000
 40
0.000000
 40
0.000000
 40
0.000000
 40
0.056655
 40
0.113683
 40
0.172629
 40
0.233202
 40
0.294633
 40
0.357354
 40
0.420076
 40
0.481507
 40
0.542080
 40
0.601026
 40
0.658054
 40
0.714709
 40
0.771364
 40
0.828392
 40
0.887338
 40
0.947911
 40
1.009342
 40
1.072063
 40
1.134785
 40
1.196216
 40
1.256789
 40
1.315735
 40
1.372763
 40
1.429418
 40
1.429418
 40
1.429418
 40
1.429418
 10
156.225406
 20
165.471305
 30
0.0
 10
156.223787
 20
165.452355
 30
0.0
 10
156.220537
 20
165.414331
 30
0.0
 10
156.195035
 20
165.361444
 30
0.0
 10
156.156507
 20
165.316253
 30
0.0
 10
156.106137
 20
165.281795
 30
0.0
 10
156.047858
 20
165.260209
 30
0.0
 10
155.985414
 20
165.252840
 30
0.0
 10
155.922976
 20
165.260209
 30
0.0
 10
155.864676
 20
165.281795
 30
0.0
 10
155.814381
 20
165.316253
 30
0.0
 10
155.775584
 20
165.361444
 30
0.0
 10
155.751048
 20
165.414331
 30
0.0
 10
155.742620
 20
165.471305
 30
0.0
 10
155.751048
 20
165.528278
 30
0.0
 10
155.775584
 20
165.581165
 30
0.0
 10
155.814381
 20
165.626356
 30
0.0
 10
155.864676
 20
165.660814
 30
0.0
 10
155.922976
 20
165.682401
 30
0.0
 10
155.985414
 20
165.689770
 30
0.0
 10
156.047858
 20
165.682401
 30
0.0
 10
156.106137
 20
165.660814
 30
0.0
 10
156.156507
 20
165.626356
 30
0.0
 10
156.195035
 20
165.581165
 30
0.0
 10
156.220537
 20
165.528278
 30
0.0
 10
156.223787
 20
165.490254
 30
0.0
 10
156.225406
 20
165.471305
 30
0.0
 11
156.225406
 21
165.471305
 31
0.0
 11
156.217184
 21
165.415250
 31
0.0
 11
156.193341
 21
165.363445
 31
0.0
 11
156.155114
 21
165.318575
 31
0.0
 11
156.105259
 21
165.284171
 31
0.0
 11
156.047698
 21
165.262713
 31
0.0
 11
155.985415
 21
165.255313
 31
0.0
 11
155.923131
 21
165.262713
 31
0.0
 11
155.865570
 21
165.284171
 31
0.0
 11
155.815715
 21
165.318575
 31
0.0
 11
155.777488
 21
165.363445
 31
0.0
 11
155.753646
 21
165.415250
 31
0.0
 11
155.745423
 21
165.471305
 31
0.0
 11
155.753646
 21
165.527360
 31
0.0
 11
155.777488
 21
165.579165
 31
0.0
 11
155.815715
 21
165.624034
 31
0.0
 11
155.865570
 21
165.658438
 31
0.0
 11
155.923131
 21
165.679896
 31
0.0
 11
155.985415
 21
165.687296
 31
0.0
 11
156.047698
 21
165.679896
 31
0.0
 11
156.105259
 21
165.658438
 31
0.0
 11
156.155114
 21
165.624034
 31
0.0
 11
156.193341
 21
165.579165
 31
0.0
 11
156.217184
 21
165.527360
 31
0.0
 11
156.225406
 21
165.471305
 31
0.0
  0
LWPOLYLINE
  5
1f4
100
AcDbEntity
  8
text
 62
4
100
AcDbPolyline
 90
2
 70
1
 10
156.225406
 20
165.471305
 30
0.0
 10
156.225406
 20
165.471305
 30
0.0
  0
SPLINE
  5
1f5
100
AcDbEntity
  8
text
 62
4
100
AcDbSpline
 70
0
 71
3
 72
31
 73
27
 74
25
 40
0.000000
 40
0.000000
 40
0.000000
 40
0.000000
 40
0.056655
 40
0.113683
 40
0.172629
 40
0.233202
 40
0.294633
 40
0.357354
 40
0.420076
 40
0.481507
 40
0.542080
 40
0.601026
 40
0.658054
 40
0.714709
 40
0.771364
 40
0.828392
 40
0.887338
 40
0.947911
 40
1.009342
 40
1.072063
 40
1.134785
 40
1.196216
 40
1.256789
 40
1.315735
 40
1.372763
 40
1.429418
 40
1.429418
 40
1.429418
 40
1.429418
 10
178.453457
 20
165.471305
 30
0.0
 10
178.451838
 20
165.452355
 30
0.0
 10
178.448588
 20
165.414331
 30
0.0
 10
178.423086
 20
165.361444
 30
0.0
 10
178.384558
 20
165.316253
 30
0.0
 10
178.334188
 20
165.281795
 30
0.0
 10
178.275909
 20
165.260209
 30
0.0
 10
178.213464
 20
165.252840
 30
0.0
 10
178.151027
 20
165.260209
 30
0.0
 10
178.092727
 20
165.281795
 30
0.0
 10
178.042432
 20
165.316253
 30
0.0
 10
178.003635
 20
165.361444
 30
0.0
 10
177.979099
 20
165.414331
 30
0.0
 10
177.970671
 20
165.471305
 30
0.0
 10
177.979099
 20
165.528278
 30
0.0
 10
178.003635
 20
165.581165
 30
0.0
 10
178.042432
 20
165.626356
 30
0.0
 10
178.092727
 20
165.660814
 30
0.0
 10
178.151027
 20
165.682401
 30
0.0
 10
178.213464
 20
165.689770
 30
0.0
 10
178.275909
 20
165.682401
 30
0.0
 10
178.334188
 20
165.660814
 30
0.0
 10
178.384558
 20
165.626356
 30
0.0
 10
178.423086
 20
165.581165
 30
0.0
 10
178.448588
 20
165.528278
 30
0.0
 10
178.451838
 20
165.490254
 30
0.0
 10
178.453457
 20
165.471305
 30
0.0
 11
178.453457
 21
165.471305
 31
0.0
 11
178.445235
 21
165.415250
 31
0.0
 11
178.421392
 21
165.363445
 31
0.0
 11
178.383165
 21
165.318575
 31
0.0
 11
178.333310
 21
165.284171
 31
0.0
 11
178.275749
 21
165.262713
 31
0.0
 11
178.213466
 21
165.255313
 31
0.0
 11
178.151182
 21
165.262713
 31
0.0
 11
178.093621
 21
165.284171
 31
0.0
 11
178.043766
 21
165.318575
 31
0.0
 11
178.005539
 21
165.363445
 31
0.0
 11
177.981696
 21
165.415250
 31
0.0
 11
177.973474
 21
165.471305
 31
0.0
 11
177.981696
 21
165.527360
 31
0.0
 11
178.005539
 21
165.579165
 31
0.0
 11
178.043766
 21
165.624034
 31
0.0
 11
178.093621
 21
165.658438
 31
0.0
 11
178.151182
 21
165.679896
 31
0.0
 11
178.213466
 21
165.687296
 31
0.0
 11
178.275749
 21
165.679896
 31
0.0
 11
178.333310
 21
165.658438
 31
0.0
 11
178.383165
 21
165.624034
 31
0.0
 11
178.421392
 21
165.579165
 31
0.0
 11
178.445235
 21
165.527360
 31
0.0
 11
178.453457
 21
165.471305
 31
0.0
  0
LWPOLYLINE
  5
1f6
100
AcDbEntity
  8
text
 62
4
100
AcDbPolyline
 90
2
 70
1
 10
178.453457
 20
165.471305
 30
0.0
 10
178.453457
 20
165.471305
 30
0.0
  0
SPLINE
  5
1f7
100
AcDbEntity
  8
text
 62
4
100
AcDbSpline
 70
0
 71
3
 72
31
 73
27
 74
25
 40
0.000000
 40
0.000000
 40
0.000000
 40
0.000000
 40
0.056655
 40
0.113683
 40
0.172629
 40
0.233202
 40
0.294633
 40
0.357354
 40
0.420076
 40
0.481507
 40
0.542080
 40
0.601026
 40
0.658054
 40
0.714709
 40
0.771364
 40
0.828392
 40
0.887338
 40
0.947911
 40
1.009342
 40
1.072063
 40
1.134785
 40
1.196216
 40
1.256789
 40
1.315735
 40
1.372763
 40
1.429418
 40
1.429418
 40
1.429418
 40
1.429418
 10
167.228003
 20
165.471305
 30
0.0
 10
167.226384
 20
165.452355
 30
0.0
 10
167.223134
 20
165.414331
 30
0.0
 10
167.197632
 20
165.361444
 30
0.0
 10
167.159104
 20
165.316253
 30
0.0
 10
167.108734
 20
165.281795
 30
0.0
 10
167.050455
 20
165.260209
 30
0.0
 10
166.988011
 20
165.252840
 30
0.0
 10
166.925573
 20
165.260209
 30
0.0
 10
166.867273
 20
165.281795
 30
0.0
 10
166.816978
 20
165.316253
 30
0.0
 10
166.778181
 20
165.361444
 30
0.0
 10
166.753645
 20
165.414331
 30
0.0
 10
166.745217
 20
165.471305
 30
0.0
 10
166.753645
 20
165.528278
 30
0.0
 10
166.778181
 20
165.581165
 30
0.0
 10
166.816978
 20
165.626356
 30
0.0
 10
166.867273
 20
165.660814
 30
0.0
 10
166.925573
 20
165.682401
 30
0.0
 10
166.988011
 20
165.689770
 30
0.0
 10
167.050455
 20
165.682401
 30
0.0
 10
167.108734
 20
165.660814
 30
0.0
 10
167.159104
 20
165.626356
 30
0.0
 10
167.197632
 20
165.581165
 30
0.0
 10
167.223134
 20
165.528278
 30
0.0
 10
167.226384
 20
165.490254
 30
0.0
 10
167.228003
 20
165.471305
 30
0.0
 11
167.228003
 21
165.471305
 31
0.0
 11
167.219781
 21
165.415250
 31
0.0
 11
167.195938
 21
165.363445
 31
0.0
 11
167.157711
 21
165.318575
 31
0.0
 11
167.107856
 21
165.284171
 31
0.0
 11
167.050295
 21
165.262713
 31
0.0
 11
166.988012
 21
165.255313
 31
0.0
 11
166.925728
 21
165.262713
 31
0.0
 11
166.868167
 21
165.284171
 31
0.0
 11
166.818312
 21
165.318575
 31
0.0
 11
166.780085
 21
165.363445
 31
0.0
 11
166.756243
 21
165.415250
 31
0.0
 11
166.748020
 21
165.471305
 31
0.0
 11
166.756243
 21
165.527360
 31
0.0
 11
166.780085
 21
165.579165
 31
0.0
 11
166.818312
 21
165.624034
 31
0.0
 11
166.868167
 21
165.658438
 31
0.0
 11
166.925728
 21
165.679896
 31
0.0
 11
166.988012
 21
165.687296
 31
0.0
 11
167.050295
 21
165.679896
 31
0.0
 11
167.107856
 21
165.658438
 31
0.0
 11
167.157711
 21
165.624034
 31
0.0
 11
167.195938
 21
165.579165
 31
0.0
 11
167.219781
 21
165.527360
 31
0.0
 11
167.228003
 21
165.471305
 31
0.0
  0
LWPOLYLINE
  5
1f8
100
AcDbEntity
  8
text
 62
4
100
AcDbPolyline
 90
2
 70
1
 10
167.228003
 20
165.471305
 30
0.0
 10
167.228003
 20
165.471305
 30
0.0
  0
LWPOLYLINE
  5
1f9
100
AcDbEntity
  8
text
 62
1
100
AcDbPolyline
 90
2
 70
0
 10
146.134641
 20
247.656842
 30
0.0
 10
148.495077
 20
247.656842
 30
0.0
  0
SPLINE
  5
1fa
100
AcDbEntity
  8
text
 62
1
100
AcDbSpline
 70
0
 71
3
 72
19
 73
15
 74
13
 40
0.000000
 40
0.000000
 40
0.000000
 40
0.000000
 40
1.596244
 40
3.049669
 40
4.645981
 40
6.242661
 40
7.695800
 40
9.291968
 40
10.887983
 40
12.341177
 40
13.937876
 40
15.534206
 40
16.987686
 40
18.583778
 40
18.583778
 40
18.583778
 40
18.583778
 10
144.362286
 20
247.656842
 30
0.0
 10
144.425493
 20
248.199221
 30
0.0
 10
144.546253
 20
249.235451
 30
0.0
 10
145.743270
 20
250.398158
 30
0.0
 10
147.312313
 20
250.718611
 30
0.0
 10
148.893727
 20
250.398351
 30
0.0
 10
150.055777
 20
249.235331
 30
0.0
 10
150.376087
 20
247.656888
 30
0.0
 10
150.055720
 20
246.078464
 30
0.0
 10
148.893748
 20
244.915429
 30
0.0
 10
147.312313
 20
244.595025
 30
0.0
 10
145.743248
 20
244.915623
 30
0.0
 10
144.546311
 20
246.078340
 30
0.0
 10
144.425511
 20
247.114523
 30
0.0
 10
144.362286
 20
247.656842
 30
0.0
 11
144.362286
 21
247.656842
 31
0.0
 11
144.734087
 21
249.209182
 31
0.0
 11
145.761899
 21
250.236824
 31
0.0
 11
147.314330
 21
250.608534
 31
0.0
 11
148.867140
 21
250.236824
 31
0.0
 11
149.894547
 21
249.209182
 31
0.0
 11
150.266022
 21
247.656842
 31
0.0
 11
149.894547
 21
246.104659
 31
0.0
 11
148.867140
 21
245.076939
 31
0.0
 11
147.314330
 21
244.705151
 31
0.0
 11
145.761899
 21
245.076939
 31
0.0
 11
144.734087
 21
246.104659
 31
0.0
 11
144.362286
 21
247.656842
 31
0.0
  0
LWPOLYLINE
  5
1fb
100
AcDbEntity
  8
text
 62
1
100
AcDbPolyline
 90
2
 70
0
 10
147.314330
 20
246.476095
 30
0.0
 10
147.314330
 20
248.837942
 30
0.0
  0
LWPOLYLINE
  5
1fc
100
AcDbEntity
  8
text
 62
1
100
AcDbPolyline
 90
2
 70
0
 10
146.100069
 20
198.152990
 30
0.0
 10
148.460505
 20
198.152990
 30
0.0
  0
SPLINE
  5
1fd
100
AcDbEntity
  8
text
 62
1
100
AcDbSpline
 70
0
 71
3
 72
19
 73
15
 74
13
 40
0.000000
 40
0.000000
 40
0.000000
 40
0.000000
 40
1.596244
 40
3.049669
 40
4.645981
 40
6.242661
 40
7.695800
 40
9.291968
 40
10.887983
 40
12.341177
 40
13.937876
 40
15.534206
 40
16.987686
 40
18.583778
 40
18.583778
 40
18.583778
 40
18.583778
 10
144.327713
 20
198.152990
 30
0.0
 10
144.390921
 20
198.695369
 30
0.0
 10
144.511681
 20
199.731599
 30
0.0
 10
145.708698
 20
200.894306
 30
0.0
 10
147.277741
 20
201.214759
 30
0.0
 10
148.859154
 20
200.894499
 30
0.0
 10
150.021204
 20
199.731479
 30
0.0
 10
150.341514
 20
198.153036
 30
0.0
 10
150.021147
 20
196.574612
 30
0.0
 10
148.859176
 20
195.411577
 30
0.0
 10
147.277741
 20
195.091173
 30
0.0
 10
145.708676
 20
195.411771
 30
0.0
 10
144.511739
 20
196.574488
 30
0.0
 10
144.390938
 20
197.610671
 30
0.0
 10
144.327713
 20
198.152990
 30
0.0
 11
144.327713
 21
198.152990
 31
0.0
 11
144.699515
 21
199.705330
 31
0.0
 11
145.727327
 21
200.732972
 31
0.0
 11
147.279758
 21
201.104682
 31
0.0
 11
148.832568
 21
200.732972
 31
0.0
 11
149.859975
 21
199.705330
 31
0.0
 11
150.231450
 21
198.152990
 31
0.0
 11
149.859975
 21
196.600807
 31
0.0
 11
148.832568
 21
195.573087
 31
0.0
 11
147.279758
 21
195.201299
 31
0.0
 11
145.727327
 21
195.573087
 31
0.0
 11
144.699515
 21
196.600807
 31
0.0
 11
144.327713
 21
198.152990
 31
0.0
  0
LWPOLYLINE
  5
1fe
100
AcDbEntity
  8
text
 62
1
100
AcDbPolyline
 90
2
 70
0
 10
147.279758
 20
196.972243
 30
0.0
 10
147.279758
 20
199.334090
 30
0.0
  0
LWPOLYLINE
  5
1ff
100
AcDbEntity
  8
text
 62
1
100
AcDbPolyline
 90
2
 70
0
 10
146.155974
 20
234.967160
 30
0.0
 10
148.516411
 20
234.967160
 30
0.0
  0
SPLINE
  5
200
100
AcDbEntity
  8
text
 62
1
100
AcDbSpline
 70
0
 71
3
 72
19
 73
15
 74
13
 40
0.000000
 40
0.000000
 40
0.000000
 40
0.000000
 40
1.596244
 40
3.049669
 40
4.645981
 40
6.242661
 40
7.695800
 40
9.291968
 40
10.887983
 40
12.341177
 40
13.937876
 40
15.534206
 40
16.987686
 40
18.583778
 40
18.583778
 40
18.583778
 40
18.583778
 10
144.383619
 20
234.967160
 30
0.0
 10
144.446826
 20
235.509539
 30
0.0
 10
144.567586
 20
236.545769
 30
0.0
 10
145.764603
 20
237.708476
 30
0.0
 10
147.333646
 20
238.028929
 30
0.0
 10
148.915060
 20
237.708669
 30
0.0
 10
150.077110
 20
236.545649
 30
0.0
 10
150.397420
 20
234.967206
 30
0.0
 10
150.077053
 20
233.388782
 30
0.0
 10
148.915081
 20
232.225747
 30
0.0
 10
147.333646
 20
231.905343
 30
0.0
 10
145.764581
 20
232.225941
 30
0.0
 10
144.567644
 20
233.388658
 30
0.0
 10
144.446844
 20
234.424841
 30
0.0
 10
144.383619
 20
234.967160
 30
0.0
 11
144.383619
 21
234.967160
 31
0.0
 11
144.755421
 21
236.519500
 31
0.0
 11
145.783232
 21
237.547142
 31
0.0
 11
147.335663
 21
237.918852
 31
0.0
 11
148.888474
 21
237.547142
 31
0.0
 11
149.915880
 21
236.519500
 31
0.0
 11
150.287355
 21
234.967160
 31
0.0
 11
149.915880
 21
233.414977
 31
0.0
 11
148.888474
 21
232.387257
 31
0.0
 11
147.335663
 21
232.015469
 31
0.0
 11
145.783232
 21
232.387257
 31
0.0
 11
144.755421
 21
233.414977
 31
0.0
 11
144.383619
 21
234.967160
 31
0.0
  0
LWPOLYLINE
  5
201
100
AcDbEntity
  8
text
 62
1
100
AcDbPolyline
 90
2
 70
0
 10
147.335663
 20
233.786413
 30
0.0
 10
147.335663
 20
236.148260
 30
0.0
  0
LWPOLYLINE
  5
202
100
AcDbEntity
  8
text
 62
1
100
AcDbPolyline
 90
2
 70
0
 10
146.191001
 20
185.430091
 30
0.0
 10
148.551437
 20
185.430091
 30
0.0
  0
SPLINE
  5
203
100
AcDbEntity
  8
text
 62
1
100
AcDbSpline
 70
0
 71
3
 72
19
 73
15
 74
13
 40
0.000000
 40
0.000000
 40
0.000000
 40
0.000000
 40
1.596244
 40
3.049669
 40
4.645981
 40
6.242661
 40
7.695800
 40
9.291968
 40
10.887983
 40
12.341177
 40
13.937876
 40
15.534206
 40
16.987686
 40
18.583778
 40
18.583778
 40
18.583778
 40
18.583778
 10
144.418645
 20
185.430091
 30
0.0
 10
144.481853
 20
185.972470
 30
0.0
 10
144.602613
 20
187.008700
 30
0.0
 10
145.799630
 20
188.171406
 30
0.0
 10
147.368673
 20
188.491859
 30
0.0
 10
148.950086
 20
188.171599
 30
0.0
 10
150.112136
 20
187.008579
 30
0.0
 10
150.432446
 20
185.430136
 30
0.0
 10
150.112079
 20
183.851712
 30
0.0
 10
148.950108
 20
182.688678
 30
0.0
 10
147.368673
 20
182.368273
 30
0.0
 10
145.799608
 20
182.688872
 30
0.0
 10
144.602671
 20
183.851588
 30
0.0
 10
144.481870
 20
184.887771
 30
0.0
 10
144.418645
 20
185.430091
 30
0.0
 11
144.418645
 21
185.430091
 31
0.0
 11
144.790447
 21
186.982431
 31
0.0
 11
145.818259
 21
188.010072
 31
0.0
 11
147.370690
 21
188.381782
 31
0.0
 11
148.923500
 21
188.010072
 31
0.0
 11
149.950907
 21
186.982431
 31
0.0
 11
150.322382
 21
185.430091
 31
0.0
 11
149.950907
 21
183.877908
 31
0.0
 11
148.923500
 21
182.850188
 31
0.0
 11
147.370690
 21
182.478399
 31
0.0
 11
145.818259
 21
182.850188
 31
0.0
 11
144.790447
 21
183.877908
 31
0.0
 11
144.418645
 21
185.430091
 31
0.0
  0
LWPOLYLINE
  5
204
100
AcDbEntity
  8
text
 62
1
100
AcDbPolyline
 90
2
 70
0
 10
147.370690
 20
184.249344
 30
0.0
 10
147.370690
 20
186.611191
 30
0.0
  0
LWPOLYLINE
  5
205
100
AcDbEntity
  8
text
 62
1
100
AcDbPolyline
 90
2
 70
0
 10
176.071530
 20
234.967160
 30
0.0
 10
178.431966
 20
234.967160
 30
0.0
  0
SPLINE
  5
206
100
AcDbEntity
  8
text
 62
1
100
AcDbSpline
 70
0
 71
3
 72
19
 73
15
 74
13
 40
0.000000
 40
0.000000
 40
0.000000
 40
0.000000
 40
1.596244
 40
3.049669
 40
4.645981
 40
6.242661
 40
7.695800
 40
9.291968
 40
10.887983
 40
12.341177
 40
13.937876
 40
15.534206
 40
16.987686
 40
18.583778
 40
18.583778
 40
18.583778
 40
18.583778
 10
174.299174
 20
234.967160
 30
0.0
 10
174.362382
 20
235.509539
 30
0.0
 10
174.483142
 20
236.545769
 30
0.0
 10
175.680159
 20
237.708476
 30
0.0
 10
177.249202
 20
238.028929
 30
0.0
 10
178.830615
 20
237.708669
 30
0.0
 10
179.992665
 20
236.545649
 30
0.0
 10
180.312975
 20
234.967206
 30
0.0
 10
179.992608
 20
233.388782
 30
0.0
 10
178.830637
 20
232.225747
 30
0.0
 10
177.249202
 20
231.905343
 30
0.0
 10
175.680137
 20
232.225941
 30
0.0
 10
174.483200
 20
233.388658
 30
0.0
 10
174.362399
 20
234.424841
 30
0.0
 10
174.299174
 20
234.967160
 30
0.0
 11
174.299174
 21
234.967160
 31
0.0
 11
174.670976
 21
236.519500
 31
0.0
 11
175.698788
 21
237.547142
 31
0.0
 11
177.251219
 21
237.918852
 31
0.0
 11
178.804029
 21
237.547142
 31
0.0
 11
179.831436
 21
236.519500
 31
0.0
 11
180.202911
 21
234.967160
 31
0.0
 11
179.831436
 21
233.414977
 31
0.0
 11
178.804029
 21
232.387257
 31
0.0
 11
177.251219
 21
232.015469
 31
0.0
 11
175.698788
 21
232.387257
 31
0.0
 11
174.670976
 21
233.414977
 31
0.0
 11
174.299174
 21
234.967160
 31
0.0
  0
LWPOLYLINE
  5
207
100
AcDbEntity
  8
text
 62
1
100
AcDbPolyline
 90
2
 70
0
 10
177.251219
 20
233.786413
 30
0.0
 10
177.251219
 20
236.148260
 30
0.0
  0
LWPOLYLINE
  5
208
100
AcDbEntity
  8
text
 62
1
100
AcDbPolyline
 90
2
 70
0
 10
176.071530
 20
247.656842
 30
0.0
 10
178.431966
 20
247.656842
 30
0.0
  0
LWPOLYLINE
  5
209
100
AcDbEntity
  8
text
 62
1
100
AcDbPolyline
 90
2
 70
0
 10
177.251219
 20
246.476095
 30
0.0
 10
177.251219
 20
248.837942
 30
0.0
  0
SPLINE
  5
20a
100
AcDbEntity
  8
text
 62
1
100
AcDbSpline
 70
0
 71
3
 72
19
 73
15
 74
13
 40
0.000000
 40
0.000000
 40
0.000000
 40
0.000000
 40
1.596244
 40
3.049669
 40
4.645981
 40
6.242661
 40
7.695800
 40
9.291968
 40
10.887983
 40
12.341177
 40
13.937876
 40
15.534206
 40
16.987686
 40
18.583778
 40
18.583778
 40
18.583778
 40
18.583778
 10
174.299174
 20
247.656842
 30
0.0
 10
174.362382
 20
248.199221
 30
0.0
 10
174.483142
 20
249.235451
 30
0.0
 10
175.680159
 20
250.398158
 30
0.0
 10
177.249202
 20
250.718611
 30
0.0
 10
178.830615
 20
250.398351
 30
0.0
 10
179.992665
 20
249.235331
 30
0.0
 10
180.312975
 20
247.656888
 30
0.0
 10
179.992608
 20
246.078464
 30
0.0
 10
178.830637
 20
244.915429
 30
0.0
 10
177.249202
 20
244.595025
 30
0.0
 10
175.680137
 20
244.915623
 30
0.0
 10
174.483200
 20
246.078340
 30
0.0
 10
174.362399
 20
247.114523
 30
0.0
 10
174.299174
 20
247.656842
 30
0.0
 11
174.299174
 21
247.656842
 31
0.0
 11
174.670976
 21
249.209182
 31
0.0
 11
175.698788
 21
250.236824
 31
0.0
 11
177.251219
 21
250.608534
 31
0.0
 11
178.804029
 21
250.236824
 31
0.0
 11
179.831436
 21
249.209182
 31
0.0
 11
180.202911
 21
247.656842
 31
0.0
 11
179.831436
 21
246.104659
 31
0.0
 11
178.804029
 21
245.076939
 31
0.0
 11
177.251219
 21
244.705151
 31
0.0
 11
175.698788
 21
245.076939
 31
0.0
 11
174.670976
 21
246.104659
 31
0.0
 11
174.299174
 21
247.656842
 31
0.0
  0
LWPOLYLINE
  5
20b
100
AcDbEntity
  8
text
 62
1
100
AcDbPolyline
 90
4
 70
0
 10
164.417618
 20
212.044499
 30
0.0
 10
176.327300
 20
208.873819
 30
0.0
 10
176.328711
 20
202.090806
 30
0.0
 10
167.795544
 20
199.482404
 30
0.0
  0
ENDSEC
  0
SECTION
  2
OBJECTS
  0
DICTIONARY
  5
C
330
0
100
AcDbDictionary
  3
ACAD_GROUP
350
D
  3
ACAD_MLINESTYLE
350
17
  0
DICTIONARY
  5
D
330
C
100
AcDbDictionary
  0
DICTIONARY
  5
1A
330
C
100
AcDbDictionary
  0
DICTIONARY
  5
17
330
C
100
AcDbDictionary
  3
STANDARD
350
18
  0
DICTIONARY
  5
19
330
C
100
AcDbDictionary
  0
ENDSEC
  0
EOF
